<mxfile host="Electron" modified="2024-03-04T11:37:01.932Z" agent="Mozilla/5.0 (Windows NT 10.0; Win64; x64) AppleWebKit/537.36 (KHTML, like Gecko) draw.io/23.1.5 Chrome/120.0.6099.109 Electron/28.1.0 Safari/537.36" etag="sJQ0GVz-YQfFiP9KfM-n" version="23.1.5" type="device">
  <diagram id="C5RBs43oDa-KdzZeNtuy" name="Page-1">
    <mxGraphModel dx="3772" dy="1663" grid="1" gridSize="10" guides="1" tooltips="1" connect="1" arrows="1" fold="1" page="1" pageScale="1" pageWidth="1169" pageHeight="827" math="0" shadow="0">
      <root>
        <mxCell id="WIyWlLk6GJQsqaUBKTNV-0" />
        <mxCell id="WIyWlLk6GJQsqaUBKTNV-1" parent="WIyWlLk6GJQsqaUBKTNV-0" />
        <mxCell id="gE1UHPuf3Wz9i4o6AJqW-61" value="" style="rounded=0;whiteSpace=wrap;html=1;strokeColor=#666666;strokeWidth=2;fillColor=#f5f5f5;fontColor=#333333;" parent="WIyWlLk6GJQsqaUBKTNV-1" vertex="1">
          <mxGeometry x="-500" y="-577.12" width="499.95" height="477.12" as="geometry" />
        </mxCell>
        <mxCell id="gE1UHPuf3Wz9i4o6AJqW-64" value="" style="rounded=0;whiteSpace=wrap;html=1;strokeColor=#666666;strokeWidth=2;fillColor=#f5f5f5;fontColor=#333333;" parent="WIyWlLk6GJQsqaUBKTNV-1" vertex="1">
          <mxGeometry x="-850.32" y="210" width="850" height="530" as="geometry" />
        </mxCell>
        <mxCell id="iLJk5mbWectUMXYaFQ-6-23" value="&lt;div&gt;+ puplic&lt;/div&gt;&lt;div&gt;- private&lt;/div&gt;&lt;div&gt;# protected&lt;/div&gt;&lt;div&gt;* internal&lt;br&gt;&lt;/div&gt;" style="shape=note;whiteSpace=wrap;html=1;backgroundOutline=1;darkOpacity=0.05;align=left;spacingLeft=10;" parent="WIyWlLk6GJQsqaUBKTNV-1" vertex="1">
          <mxGeometry x="-1866.06" y="-780" width="110" height="70" as="geometry" />
        </mxCell>
        <mxCell id="Vc8K5EFyPNVEoPAMN7gl-1" value="&lt;&lt;interface&gt;&gt;&#xa;* IDailyReportManagement" style="swimlane;fontStyle=0;align=center;verticalAlign=top;childLayout=stackLayout;horizontal=1;startSize=40;horizontalStack=0;resizeParent=1;resizeLast=0;collapsible=1;marginBottom=0;rounded=0;shadow=0;strokeWidth=1;" parent="WIyWlLk6GJQsqaUBKTNV-1" vertex="1">
          <mxGeometry x="-362.79999999999995" y="258.5" width="264.97" height="73" as="geometry">
            <mxRectangle x="130" y="380" width="160" height="26" as="alternateBounds" />
          </mxGeometry>
        </mxCell>
        <mxCell id="Vc8K5EFyPNVEoPAMN7gl-2" value="" style="line;html=1;strokeWidth=1;align=left;verticalAlign=middle;spacingTop=-1;spacingLeft=3;spacingRight=3;rotatable=0;labelPosition=right;points=[];portConstraint=eastwest;" parent="Vc8K5EFyPNVEoPAMN7gl-1" vertex="1">
          <mxGeometry y="40" width="264.97" height="8" as="geometry" />
        </mxCell>
        <mxCell id="Vc8K5EFyPNVEoPAMN7gl-3" value="* ManageDailyReport&lt;T&gt;(...): void {abstract}" style="text;align=left;verticalAlign=top;spacingLeft=4;spacingRight=4;overflow=hidden;rotatable=0;points=[[0,0.5],[1,0.5]];portConstraint=eastwest;fontStyle=0;fillColor=default;" parent="Vc8K5EFyPNVEoPAMN7gl-1" vertex="1">
          <mxGeometry y="48" width="264.97" height="25" as="geometry" />
        </mxCell>
        <mxCell id="Vc8K5EFyPNVEoPAMN7gl-4" value="* Others..." style="swimlane;fontStyle=0;align=center;verticalAlign=top;childLayout=stackLayout;horizontal=1;startSize=24;horizontalStack=0;resizeParent=1;resizeLast=0;collapsible=1;marginBottom=0;rounded=0;shadow=0;strokeWidth=1;" parent="WIyWlLk6GJQsqaUBKTNV-1" vertex="1">
          <mxGeometry x="-236.94999999999993" y="660" width="202.63" height="60" as="geometry">
            <mxRectangle x="130" y="380" width="160" height="26" as="alternateBounds" />
          </mxGeometry>
        </mxCell>
        <mxCell id="Vc8K5EFyPNVEoPAMN7gl-6" value="" style="line;html=1;strokeWidth=1;align=left;verticalAlign=middle;spacingTop=-1;spacingLeft=3;spacingRight=3;rotatable=0;labelPosition=right;points=[];portConstraint=eastwest;" parent="Vc8K5EFyPNVEoPAMN7gl-4" vertex="1">
          <mxGeometry y="24" width="202.63" height="8" as="geometry" />
        </mxCell>
        <mxCell id="Vc8K5EFyPNVEoPAMN7gl-16" value="* ManageDailyReport&lt;T&gt;(...): void" style="text;align=left;verticalAlign=top;spacingLeft=4;spacingRight=4;overflow=hidden;rotatable=0;points=[[0,0.5],[1,0.5]];portConstraint=eastwest;fontStyle=0;fillColor=default;" parent="Vc8K5EFyPNVEoPAMN7gl-4" vertex="1">
          <mxGeometry y="32" width="202.63" height="25" as="geometry" />
        </mxCell>
        <mxCell id="Vc8K5EFyPNVEoPAMN7gl-10" value="" style="endArrow=block;html=1;rounded=0;endFill=0;endSize=10;dashed=1;elbow=vertical;" parent="WIyWlLk6GJQsqaUBKTNV-1" source="Vc8K5EFyPNVEoPAMN7gl-11" target="Vc8K5EFyPNVEoPAMN7gl-1" edge="1">
          <mxGeometry width="50" height="50" relative="1" as="geometry">
            <mxPoint x="-375.4399999999998" y="553.5" as="sourcePoint" />
            <mxPoint x="-415.4399999999998" y="346.5" as="targetPoint" />
          </mxGeometry>
        </mxCell>
        <mxCell id="Vc8K5EFyPNVEoPAMN7gl-11" value="* DailyReportManagement&#xa;{abstract}" style="swimlane;fontStyle=0;align=center;verticalAlign=top;childLayout=stackLayout;horizontal=1;startSize=40;horizontalStack=0;resizeParent=1;resizeLast=0;collapsible=1;marginBottom=0;rounded=0;shadow=0;strokeWidth=1;" parent="WIyWlLk6GJQsqaUBKTNV-1" vertex="1">
          <mxGeometry x="-360.31999999999994" y="370" width="260" height="151.5" as="geometry">
            <mxRectangle x="130" y="380" width="160" height="26" as="alternateBounds" />
          </mxGeometry>
        </mxCell>
        <mxCell id="Vc8K5EFyPNVEoPAMN7gl-117" value="- ValidatorBehavior: IValidator" style="text;align=left;verticalAlign=top;spacingLeft=4;spacingRight=4;overflow=hidden;rotatable=0;points=[[0,0.5],[1,0.5]];portConstraint=eastwest;fontStyle=0;fillColor=default;" parent="Vc8K5EFyPNVEoPAMN7gl-11" vertex="1">
          <mxGeometry y="40" width="260" height="25" as="geometry" />
        </mxCell>
        <mxCell id="Vc8K5EFyPNVEoPAMN7gl-13" value="" style="line;html=1;strokeWidth=1;align=left;verticalAlign=middle;spacingTop=-1;spacingLeft=3;spacingRight=3;rotatable=0;labelPosition=right;points=[];portConstraint=eastwest;" parent="Vc8K5EFyPNVEoPAMN7gl-11" vertex="1">
          <mxGeometry y="65" width="260" height="8" as="geometry" />
        </mxCell>
        <mxCell id="Vc8K5EFyPNVEoPAMN7gl-80" value="* ManageDailyReport&lt;T&gt;(...): void {abstract}" style="text;align=left;verticalAlign=top;spacingLeft=4;spacingRight=4;overflow=hidden;rotatable=0;points=[[0,0.5],[1,0.5]];portConstraint=eastwest;fontStyle=0;fillColor=default;" parent="Vc8K5EFyPNVEoPAMN7gl-11" vertex="1">
          <mxGeometry y="73" width="260" height="25" as="geometry" />
        </mxCell>
        <mxCell id="lkbI6lujMXG_aIigIrUI-17" value="# PerformValidator&lt;T&gt;(...): void" style="text;align=left;verticalAlign=top;spacingLeft=4;spacingRight=4;overflow=hidden;rotatable=0;points=[[0,0.5],[1,0.5]];portConstraint=eastwest;fontStyle=0;fillColor=default;" parent="Vc8K5EFyPNVEoPAMN7gl-11" vertex="1">
          <mxGeometry y="98" width="260" height="24" as="geometry" />
        </mxCell>
        <mxCell id="lkbI6lujMXG_aIigIrUI-18" value="# PerformUpSertDailyReport(...): void" style="text;align=left;verticalAlign=top;spacingLeft=4;spacingRight=4;overflow=hidden;rotatable=0;points=[[0,0.5],[1,0.5]];portConstraint=eastwest;fontStyle=0;fillColor=default;" parent="Vc8K5EFyPNVEoPAMN7gl-11" vertex="1">
          <mxGeometry y="122" width="260" height="24" as="geometry" />
        </mxCell>
        <mxCell id="Vc8K5EFyPNVEoPAMN7gl-15" value="" style="endArrow=block;html=1;rounded=0;endFill=0;endSize=10;elbow=horizontal;" parent="WIyWlLk6GJQsqaUBKTNV-1" source="Vc8K5EFyPNVEoPAMN7gl-18" target="Vc8K5EFyPNVEoPAMN7gl-11" edge="1">
          <mxGeometry width="50" height="50" relative="1" as="geometry">
            <mxPoint x="-398.4399999999998" y="651.5" as="sourcePoint" />
            <mxPoint x="-338.4399999999998" y="574.5" as="targetPoint" />
          </mxGeometry>
        </mxCell>
        <mxCell id="Vc8K5EFyPNVEoPAMN7gl-18" value="* AllTelematicData" style="swimlane;fontStyle=0;align=center;verticalAlign=top;childLayout=stackLayout;horizontal=1;startSize=24;horizontalStack=0;resizeParent=1;resizeLast=0;collapsible=1;marginBottom=0;rounded=0;shadow=0;strokeWidth=1;" parent="WIyWlLk6GJQsqaUBKTNV-1" vertex="1">
          <mxGeometry x="-410.31999999999994" y="568" width="210" height="59" as="geometry">
            <mxRectangle x="130" y="380" width="160" height="26" as="alternateBounds" />
          </mxGeometry>
        </mxCell>
        <mxCell id="Vc8K5EFyPNVEoPAMN7gl-20" value="" style="line;html=1;strokeWidth=1;align=left;verticalAlign=middle;spacingTop=-1;spacingLeft=3;spacingRight=3;rotatable=0;labelPosition=right;points=[];portConstraint=eastwest;" parent="Vc8K5EFyPNVEoPAMN7gl-18" vertex="1">
          <mxGeometry y="24" width="210" height="8" as="geometry" />
        </mxCell>
        <mxCell id="Vc8K5EFyPNVEoPAMN7gl-21" value="* ManageDailyReport&lt;T&gt;(...): void" style="text;align=left;verticalAlign=top;spacingLeft=4;spacingRight=4;overflow=hidden;rotatable=0;points=[[0,0.5],[1,0.5]];portConstraint=eastwest;fontStyle=0;fillColor=default;" parent="Vc8K5EFyPNVEoPAMN7gl-18" vertex="1">
          <mxGeometry y="32" width="210" height="25" as="geometry" />
        </mxCell>
        <mxCell id="Vc8K5EFyPNVEoPAMN7gl-23" value="" style="endArrow=block;html=1;rounded=0;endFill=0;endSize=10;elbow=horizontal;exitX=0.75;exitY=0;exitDx=0;exitDy=0;" parent="WIyWlLk6GJQsqaUBKTNV-1" source="Vc8K5EFyPNVEoPAMN7gl-4" target="Vc8K5EFyPNVEoPAMN7gl-11" edge="1">
          <mxGeometry width="50" height="50" relative="1" as="geometry">
            <mxPoint x="595.6900000000002" y="455.5" as="sourcePoint" />
            <mxPoint x="-342.95000000000005" y="548.5" as="targetPoint" />
          </mxGeometry>
        </mxCell>
        <mxCell id="Vc8K5EFyPNVEoPAMN7gl-112" value="Einstiegspunkte" style="text;html=1;align=center;verticalAlign=middle;whiteSpace=wrap;rounded=0;fontSize=12;fontStyle=0;fillColor=#dae8fc;strokeColor=#6c8ebf;" parent="WIyWlLk6GJQsqaUBKTNV-1" vertex="1">
          <mxGeometry x="-1866.06" y="-820" width="116.06" height="30" as="geometry" />
        </mxCell>
        <mxCell id="Vc8K5EFyPNVEoPAMN7gl-118" value="&lt;&lt;interface&gt;&gt;&#xa;* IValidator" style="swimlane;fontStyle=0;align=center;verticalAlign=top;childLayout=stackLayout;horizontal=1;startSize=39;horizontalStack=0;resizeParent=1;resizeLast=0;collapsible=1;marginBottom=0;rounded=0;shadow=0;strokeWidth=1;" parent="WIyWlLk6GJQsqaUBKTNV-1" vertex="1">
          <mxGeometry x="-762.39" y="404" width="197.56" height="73" as="geometry">
            <mxRectangle x="130" y="380" width="160" height="26" as="alternateBounds" />
          </mxGeometry>
        </mxCell>
        <mxCell id="Vc8K5EFyPNVEoPAMN7gl-119" value="" style="line;html=1;strokeWidth=1;align=left;verticalAlign=middle;spacingTop=-1;spacingLeft=3;spacingRight=3;rotatable=0;labelPosition=right;points=[];portConstraint=eastwest;" parent="Vc8K5EFyPNVEoPAMN7gl-118" vertex="1">
          <mxGeometry y="39" width="197.56" height="8" as="geometry" />
        </mxCell>
        <mxCell id="Vc8K5EFyPNVEoPAMN7gl-120" value="* Validate&lt;T&gt;(...): void {abstract}" style="text;align=left;verticalAlign=top;spacingLeft=4;spacingRight=4;overflow=hidden;rotatable=0;points=[[0,0.5],[1,0.5]];portConstraint=eastwest;fontStyle=0;fillColor=default;" parent="Vc8K5EFyPNVEoPAMN7gl-118" vertex="1">
          <mxGeometry y="47" width="197.56" height="23" as="geometry" />
        </mxCell>
        <mxCell id="Vc8K5EFyPNVEoPAMN7gl-121" value="* Hours" style="swimlane;fontStyle=0;align=center;verticalAlign=top;childLayout=stackLayout;horizontal=1;startSize=24;horizontalStack=0;resizeParent=1;resizeLast=0;collapsible=1;marginBottom=0;rounded=0;shadow=0;strokeWidth=1;" parent="WIyWlLk6GJQsqaUBKTNV-1" vertex="1">
          <mxGeometry x="-822.39" y="510.75" width="160" height="57" as="geometry">
            <mxRectangle x="130" y="380" width="160" height="26" as="alternateBounds" />
          </mxGeometry>
        </mxCell>
        <mxCell id="Vc8K5EFyPNVEoPAMN7gl-122" value="" style="line;html=1;strokeWidth=1;align=left;verticalAlign=middle;spacingTop=-1;spacingLeft=3;spacingRight=3;rotatable=0;labelPosition=right;points=[];portConstraint=eastwest;" parent="Vc8K5EFyPNVEoPAMN7gl-121" vertex="1">
          <mxGeometry y="24" width="160" height="8" as="geometry" />
        </mxCell>
        <mxCell id="cdLhrll1uMz7AYDoc9vj-23" value="* Validate&lt;T&gt;(...): void" style="text;align=left;verticalAlign=top;spacingLeft=4;spacingRight=4;overflow=hidden;rotatable=0;points=[[0,0.5],[1,0.5]];portConstraint=eastwest;fontStyle=0;fillColor=default;" parent="Vc8K5EFyPNVEoPAMN7gl-121" vertex="1">
          <mxGeometry y="32" width="160" height="23" as="geometry" />
        </mxCell>
        <mxCell id="Vc8K5EFyPNVEoPAMN7gl-127" value="" style="endArrow=block;html=1;rounded=0;endFill=0;endSize=10;elbow=horizontal;dashed=1;" parent="WIyWlLk6GJQsqaUBKTNV-1" source="Vc8K5EFyPNVEoPAMN7gl-121" target="Vc8K5EFyPNVEoPAMN7gl-118" edge="1">
          <mxGeometry width="50" height="50" relative="1" as="geometry">
            <mxPoint x="-278.4799999999999" y="-199.25" as="sourcePoint" />
            <mxPoint x="-725.4799999999999" y="-304.25" as="targetPoint" />
          </mxGeometry>
        </mxCell>
        <mxCell id="Vc8K5EFyPNVEoPAMN7gl-128" value="* Values" style="swimlane;fontStyle=0;align=center;verticalAlign=top;childLayout=stackLayout;horizontal=1;startSize=24;horizontalStack=0;resizeParent=1;resizeLast=0;collapsible=1;marginBottom=0;rounded=0;shadow=0;strokeWidth=1;" parent="WIyWlLk6GJQsqaUBKTNV-1" vertex="1">
          <mxGeometry x="-672.3700000000002" y="589.75" width="155.13" height="57" as="geometry">
            <mxRectangle x="130" y="380" width="160" height="26" as="alternateBounds" />
          </mxGeometry>
        </mxCell>
        <mxCell id="Vc8K5EFyPNVEoPAMN7gl-129" value="" style="line;html=1;strokeWidth=1;align=left;verticalAlign=middle;spacingTop=-1;spacingLeft=3;spacingRight=3;rotatable=0;labelPosition=right;points=[];portConstraint=eastwest;" parent="Vc8K5EFyPNVEoPAMN7gl-128" vertex="1">
          <mxGeometry y="24" width="155.13" height="8" as="geometry" />
        </mxCell>
        <mxCell id="cdLhrll1uMz7AYDoc9vj-24" value="* Validate&lt;T&gt;(...): void" style="text;align=left;verticalAlign=top;spacingLeft=4;spacingRight=4;overflow=hidden;rotatable=0;points=[[0,0.5],[1,0.5]];portConstraint=eastwest;fontStyle=0;fillColor=default;" parent="Vc8K5EFyPNVEoPAMN7gl-128" vertex="1">
          <mxGeometry y="32" width="155.13" height="23" as="geometry" />
        </mxCell>
        <mxCell id="Vc8K5EFyPNVEoPAMN7gl-131" value="" style="endArrow=block;html=1;rounded=0;endFill=0;endSize=10;elbow=horizontal;dashed=1;exitX=0.75;exitY=0;exitDx=0;exitDy=0;" parent="WIyWlLk6GJQsqaUBKTNV-1" source="Vc8K5EFyPNVEoPAMN7gl-128" target="Vc8K5EFyPNVEoPAMN7gl-118" edge="1">
          <mxGeometry width="50" height="50" relative="1" as="geometry">
            <mxPoint x="-526.4799999999999" y="240.75" as="sourcePoint" />
            <mxPoint x="-620.1100000000001" y="217.25" as="targetPoint" />
          </mxGeometry>
        </mxCell>
        <mxCell id="gE1UHPuf3Wz9i4o6AJqW-65" value="DailyReport Management" style="text;strokeColor=none;fillColor=none;html=1;fontSize=14;fontStyle=1;verticalAlign=middle;align=center;fontColor=#000000;" parent="WIyWlLk6GJQsqaUBKTNV-1" vertex="1">
          <mxGeometry x="-850.32" y="210" width="850" height="30" as="geometry" />
        </mxCell>
        <mxCell id="gE1UHPuf3Wz9i4o6AJqW-8" value="" style="rounded=0;whiteSpace=wrap;html=1;strokeColor=#666666;strokeWidth=2;container=0;fillColor=#f5f5f5;fontColor=#333333;" parent="WIyWlLk6GJQsqaUBKTNV-1" vertex="1">
          <mxGeometry x="-1080" y="-577.12" width="530" height="737.12" as="geometry" />
        </mxCell>
        <mxCell id="0nikx_p26S03Rqr2ldTH-83" value="" style="endArrow=block;html=1;rounded=0;endFill=0;endSize=10;elbow=vertical;" parent="WIyWlLk6GJQsqaUBKTNV-1" source="0nikx_p26S03Rqr2ldTH-56" edge="1">
          <mxGeometry width="50" height="50" relative="1" as="geometry">
            <mxPoint x="-622.5471223599288" y="-67.62000000000023" as="sourcePoint" />
            <mxPoint x="-853.89" y="-110" as="targetPoint" />
          </mxGeometry>
        </mxCell>
        <mxCell id="Vc8K5EFyPNVEoPAMN7gl-103" value="" style="endArrow=block;html=1;rounded=0;endFill=0;endSize=10;elbow=vertical;" parent="WIyWlLk6GJQsqaUBKTNV-1" source="Vc8K5EFyPNVEoPAMN7gl-99" edge="1">
          <mxGeometry width="50" height="50" relative="1" as="geometry">
            <mxPoint x="-400.9262295081966" y="-46.62" as="sourcePoint" />
            <mxPoint x="-663.89" y="-110" as="targetPoint" />
          </mxGeometry>
        </mxCell>
        <mxCell id="gE1UHPuf3Wz9i4o6AJqW-7" value="&lt;div style=&quot;&quot;&gt;&lt;font style=&quot;font-size: 14px;&quot;&gt;Time&lt;/font&gt;&lt;font style=&quot;font-size: 14px;&quot;&gt;Serie&lt;/font&gt;&lt;font style=&quot;font-size: 14px;&quot;&gt;s Workflow&lt;/font&gt;&lt;/div&gt;" style="text;strokeColor=none;fillColor=none;html=1;fontSize=14;fontStyle=1;verticalAlign=middle;align=center;fontColor=#000000;container=0;" parent="WIyWlLk6GJQsqaUBKTNV-1" vertex="1">
          <mxGeometry x="-1080.0000000000002" y="-577.12" width="530" height="31" as="geometry" />
        </mxCell>
        <mxCell id="gE1UHPuf3Wz9i4o6AJqW-73" value="" style="endArrow=open;html=1;rounded=0;endFill=0;endSize=10;exitX=1;exitY=0.5;exitDx=0;exitDy=0;entryX=0;entryY=0.25;entryDx=0;entryDy=0;" parent="WIyWlLk6GJQsqaUBKTNV-1" source="0nikx_p26S03Rqr2ldTH-88" target="0nikx_p26S03Rqr2ldTH-151" edge="1">
          <mxGeometry width="50" height="50" relative="1" as="geometry">
            <mxPoint x="-1925.1100000000001" y="-45.87" as="sourcePoint" />
            <mxPoint x="-1439.1100000000001" y="398.13" as="targetPoint" />
          </mxGeometry>
        </mxCell>
        <mxCell id="gE1UHPuf3Wz9i4o6AJqW-85" value="" style="endArrow=open;html=1;rounded=0;endFill=0;endSize=10;exitX=0;exitY=0.5;exitDx=0;exitDy=0;entryX=1;entryY=0.25;entryDx=0;entryDy=0;" parent="WIyWlLk6GJQsqaUBKTNV-1" source="Vc8K5EFyPNVEoPAMN7gl-117" target="Vc8K5EFyPNVEoPAMN7gl-118" edge="1">
          <mxGeometry width="50" height="50" relative="1" as="geometry">
            <mxPoint x="-115.31999999999994" y="-14.5" as="sourcePoint" />
            <mxPoint x="-204.31999999999994" y="268.5" as="targetPoint" />
          </mxGeometry>
        </mxCell>
        <mxCell id="Vc8K5EFyPNVEoPAMN7gl-99" value="+ Others ..." style="swimlane;fontStyle=0;align=center;verticalAlign=top;childLayout=stackLayout;horizontal=1;startSize=24;horizontalStack=0;resizeParent=1;resizeLast=0;collapsible=1;marginBottom=0;rounded=0;shadow=0;strokeWidth=1;container=1;" parent="WIyWlLk6GJQsqaUBKTNV-1" vertex="1">
          <mxGeometry x="-705" y="-80.37" width="129.98" height="82" as="geometry">
            <mxRectangle x="130" y="380" width="160" height="26" as="alternateBounds" />
          </mxGeometry>
        </mxCell>
        <mxCell id="lkbI6lujMXG_aIigIrUI-13" value="- ListTelematicsData" style="text;align=left;verticalAlign=top;spacingLeft=4;spacingRight=4;overflow=hidden;rotatable=1;points=[[0,0.5],[1,0.5]];portConstraint=eastwest;fontStyle=0;container=0;movable=1;resizable=1;deletable=1;editable=1;locked=0;connectable=1;fillColor=default;fontSize=12;" parent="Vc8K5EFyPNVEoPAMN7gl-99" vertex="1">
          <mxGeometry y="24" width="129.98" height="25" as="geometry" />
        </mxCell>
        <mxCell id="Vc8K5EFyPNVEoPAMN7gl-100" value="" style="line;html=1;strokeWidth=1;align=left;verticalAlign=middle;spacingTop=-1;spacingLeft=3;spacingRight=3;rotatable=0;labelPosition=right;points=[];portConstraint=eastwest;container=0;" parent="Vc8K5EFyPNVEoPAMN7gl-99" vertex="1">
          <mxGeometry y="49" width="129.98" height="8" as="geometry" />
        </mxCell>
        <mxCell id="Vc8K5EFyPNVEoPAMN7gl-106" value="+ Run(...): void" style="text;align=left;verticalAlign=top;spacingLeft=4;spacingRight=4;overflow=hidden;rotatable=0;points=[[0,0.5],[1,0.5]];portConstraint=eastwest;fontStyle=0;fillColor=#dae8fc;strokeColor=#6c8ebf;container=0;" parent="Vc8K5EFyPNVEoPAMN7gl-99" vertex="1">
          <mxGeometry y="57" width="129.98" height="25" as="geometry" />
        </mxCell>
        <mxCell id="0nikx_p26S03Rqr2ldTH-44" value="+ TimeSeries" style="swimlane;fontStyle=0;align=center;verticalAlign=top;childLayout=stackLayout;horizontal=1;startSize=30;horizontalStack=0;resizeParent=1;resizeLast=0;collapsible=1;marginBottom=0;rounded=0;shadow=0;strokeWidth=1;container=0;movable=1;resizable=1;rotatable=1;deletable=1;editable=1;locked=0;connectable=1;" parent="WIyWlLk6GJQsqaUBKTNV-1" vertex="1">
          <mxGeometry x="-900" y="-523.12" width="270" height="414" as="geometry">
            <mxRectangle x="130" y="380" width="160" height="26" as="alternateBounds" />
          </mxGeometry>
        </mxCell>
        <mxCell id="lkbI6lujMXG_aIigIrUI-6" value="- AccessToken: string" style="text;align=left;verticalAlign=top;spacingLeft=4;spacingRight=4;overflow=hidden;rotatable=0;points=[[0,0.5],[1,0.5]];portConstraint=eastwest;fontStyle=0;container=0;fillColor=default;" parent="0nikx_p26S03Rqr2ldTH-44" vertex="1">
          <mxGeometry y="30" width="270" height="25" as="geometry" />
        </mxCell>
        <mxCell id="lkbI6lujMXG_aIigIrUI-7" value="- APIConnectionURL: string" style="text;align=left;verticalAlign=top;spacingLeft=4;spacingRight=4;overflow=hidden;rotatable=0;points=[[0,0.5],[1,0.5]];portConstraint=eastwest;fontStyle=0;container=0;fillColor=default;" parent="0nikx_p26S03Rqr2ldTH-44" vertex="1">
          <mxGeometry y="55" width="270" height="25" as="geometry" />
        </mxCell>
        <mxCell id="lkbI6lujMXG_aIigIrUI-8" value="- SQLConnectionString: string" style="text;align=left;verticalAlign=top;spacingLeft=4;spacingRight=4;overflow=hidden;rotatable=0;points=[[0,0.5],[1,0.5]];portConstraint=eastwest;fontStyle=0;container=0;fillColor=default;" parent="0nikx_p26S03Rqr2ldTH-44" vertex="1">
          <mxGeometry y="80" width="270" height="25" as="geometry" />
        </mxCell>
        <mxCell id="lkbI6lujMXG_aIigIrUI-9" value="- TriggerDateTime: string" style="text;align=left;verticalAlign=top;spacingLeft=4;spacingRight=4;overflow=hidden;rotatable=0;points=[[0,0.5],[1,0.5]];portConstraint=eastwest;fontStyle=0;container=0;fillColor=default;" parent="0nikx_p26S03Rqr2ldTH-44" vertex="1">
          <mxGeometry y="105" width="270" height="25" as="geometry" />
        </mxCell>
        <mxCell id="0nikx_p26S03Rqr2ldTH-139" value="- EquipmentID: string" style="text;align=left;verticalAlign=top;spacingLeft=4;spacingRight=4;overflow=hidden;rotatable=1;points=[[0,0.5],[1,0.5]];portConstraint=eastwest;fontStyle=0;container=0;movable=1;resizable=1;deletable=1;editable=1;locked=0;connectable=1;fillColor=default;" parent="0nikx_p26S03Rqr2ldTH-44" vertex="1">
          <mxGeometry y="130" width="270" height="25" as="geometry" />
        </mxCell>
        <mxCell id="0nikx_p26S03Rqr2ldTH-45" value="- APICallBehavior: ITelematicDataIntegration" style="text;align=left;verticalAlign=top;spacingLeft=4;spacingRight=4;overflow=hidden;rotatable=1;points=[[0,0.5],[1,0.5]];portConstraint=eastwest;fontStyle=0;container=0;movable=1;resizable=1;deletable=1;editable=1;locked=0;connectable=1;fillColor=default;" parent="0nikx_p26S03Rqr2ldTH-44" vertex="1">
          <mxGeometry y="155" width="270" height="25" as="geometry" />
        </mxCell>
        <mxCell id="0nikx_p26S03Rqr2ldTH-88" value="- TDMBehavior: ITelematicDataManagement" style="text;align=left;verticalAlign=top;spacingLeft=4;spacingRight=4;overflow=hidden;rotatable=1;points=[[0,0.5],[1,0.5]];portConstraint=eastwest;fontStyle=0;container=0;movable=1;resizable=1;deletable=1;editable=1;locked=0;connectable=1;fillColor=default;" parent="0nikx_p26S03Rqr2ldTH-44" vertex="1">
          <mxGeometry y="180" width="270" height="25" as="geometry" />
        </mxCell>
        <mxCell id="0nikx_p26S03Rqr2ldTH-89" value="- DRMBehavior: IDailyReportManagement" style="text;align=left;verticalAlign=top;spacingLeft=4;spacingRight=4;overflow=hidden;rotatable=1;points=[[0,0.5],[1,0.5]];portConstraint=eastwest;fontStyle=0;container=0;movable=1;resizable=1;deletable=1;editable=1;locked=0;connectable=1;fillColor=default;" parent="0nikx_p26S03Rqr2ldTH-44" vertex="1">
          <mxGeometry y="205" width="270" height="25" as="geometry" />
        </mxCell>
        <mxCell id="0nikx_p26S03Rqr2ldTH-140" value="- EndpointName: string" style="text;align=left;verticalAlign=top;spacingLeft=4;spacingRight=4;overflow=hidden;rotatable=1;points=[[0,0.5],[1,0.5]];portConstraint=eastwest;fontStyle=0;container=0;movable=1;resizable=1;deletable=1;editable=1;locked=0;connectable=1;fillColor=default;" parent="0nikx_p26S03Rqr2ldTH-44" vertex="1">
          <mxGeometry y="230" width="270" height="25" as="geometry" />
        </mxCell>
        <mxCell id="0nikx_p26S03Rqr2ldTH-46" value="- NameOfDataToken: string" style="text;align=left;verticalAlign=top;spacingLeft=4;spacingRight=4;overflow=hidden;rotatable=1;points=[[0,0.5],[1,0.5]];portConstraint=eastwest;fontStyle=0;container=0;movable=1;resizable=1;deletable=1;editable=1;locked=0;connectable=1;fillColor=default;" parent="0nikx_p26S03Rqr2ldTH-44" vertex="1">
          <mxGeometry y="255" width="270" height="25" as="geometry" />
        </mxCell>
        <mxCell id="0nikx_p26S03Rqr2ldTH-63" value="- DateFrom: string" style="text;align=left;verticalAlign=top;spacingLeft=4;spacingRight=4;overflow=hidden;rotatable=1;points=[[0,0.5],[1,0.5]];portConstraint=eastwest;fontStyle=0;container=0;movable=1;resizable=1;deletable=1;editable=1;locked=0;connectable=1;fillColor=default;" parent="0nikx_p26S03Rqr2ldTH-44" vertex="1">
          <mxGeometry y="280" width="270" height="25" as="geometry" />
        </mxCell>
        <mxCell id="0nikx_p26S03Rqr2ldTH-51" value="" style="line;html=1;strokeWidth=1;align=left;verticalAlign=middle;spacingTop=-1;spacingLeft=3;spacingRight=3;rotatable=1;labelPosition=right;points=[];portConstraint=eastwest;container=0;movable=1;resizable=1;deletable=1;editable=1;locked=0;connectable=1;" parent="0nikx_p26S03Rqr2ldTH-44" vertex="1">
          <mxGeometry y="305" width="270" height="8" as="geometry" />
        </mxCell>
        <mxCell id="0nikx_p26S03Rqr2ldTH-52" value="&amp;nbsp;# ReadFunctionParameters(...): void" style="text;whiteSpace=wrap;html=1;container=0;movable=1;resizable=1;rotatable=1;deletable=1;editable=1;locked=0;connectable=1;fillColor=default;" parent="0nikx_p26S03Rqr2ldTH-44" vertex="1">
          <mxGeometry y="313" width="270" height="24" as="geometry" />
        </mxCell>
        <mxCell id="WGa1z35rx9LFmZII8yUq-1" value="&amp;nbsp;# PerformAPICall&amp;lt;T&amp;gt;(...): List&amp;lt;T&amp;gt;" style="text;whiteSpace=wrap;html=1;container=0;fillColor=default;" parent="0nikx_p26S03Rqr2ldTH-44" vertex="1">
          <mxGeometry y="337" width="270" height="24" as="geometry" />
        </mxCell>
        <mxCell id="WGa1z35rx9LFmZII8yUq-3" value="&amp;nbsp;# PerformTDMBehavior&amp;lt;T&amp;gt;(...): void" style="text;whiteSpace=wrap;html=1;container=0;fillColor=default;" parent="0nikx_p26S03Rqr2ldTH-44" vertex="1">
          <mxGeometry y="361" width="270" height="24" as="geometry" />
        </mxCell>
        <mxCell id="WGa1z35rx9LFmZII8yUq-2" value="&amp;nbsp;# PerformDRMBehavior&amp;lt;T&amp;gt;(...): void" style="text;whiteSpace=wrap;html=1;container=0;fillColor=default;" parent="0nikx_p26S03Rqr2ldTH-44" vertex="1">
          <mxGeometry y="385" width="270" height="24" as="geometry" />
        </mxCell>
        <mxCell id="gE1UHPuf3Wz9i4o6AJqW-4" value="" style="rounded=0;whiteSpace=wrap;html=1;fontColor=#333333;strokeColor=#666666;strokeWidth=2;fillColor=#f5f5f5;" parent="WIyWlLk6GJQsqaUBKTNV-1" vertex="1">
          <mxGeometry x="-1481.98" y="-698.62" width="359.81" height="477.25" as="geometry" />
        </mxCell>
        <mxCell id="w3nSRxxRUuNRqhBMiIj4-15" value="* TelematicDataIntegration&#xa;{abstract}" style="swimlane;fontStyle=0;align=center;verticalAlign=top;childLayout=stackLayout;horizontal=1;startSize=39;horizontalStack=0;resizeParent=1;resizeLast=0;collapsible=1;marginBottom=0;rounded=0;shadow=0;strokeWidth=1;fillStyle=solid;fillColor=#FFFFFF;" parent="WIyWlLk6GJQsqaUBKTNV-1" vertex="1">
          <mxGeometry x="-1429.8200000000002" y="-538.62" width="245.66" height="120" as="geometry">
            <mxRectangle x="130" y="380" width="160" height="26" as="alternateBounds" />
          </mxGeometry>
        </mxCell>
        <mxCell id="w3nSRxxRUuNRqhBMiIj4-16" value="" style="line;html=1;strokeWidth=1;align=left;verticalAlign=middle;spacingTop=-1;spacingLeft=3;spacingRight=3;rotatable=0;labelPosition=right;points=[];portConstraint=eastwest;" parent="w3nSRxxRUuNRqhBMiIj4-15" vertex="1">
          <mxGeometry y="39" width="245.66" height="8" as="geometry" />
        </mxCell>
        <mxCell id="fM1EUI45lHuSEFD844UD-9" value="&amp;nbsp;* ReadAllData&amp;lt;T&amp;gt;(...): List&amp;lt;T&amp;gt; {abstract}" style="text;whiteSpace=wrap;html=1;fillColor=default;" parent="w3nSRxxRUuNRqhBMiIj4-15" vertex="1">
          <mxGeometry y="47" width="245.66" height="24" as="geometry" />
        </mxCell>
        <mxCell id="fM1EUI45lHuSEFD844UD-12" value="# AddResponseDataToList&lt;T&gt;(...): void" style="text;align=left;verticalAlign=top;spacingLeft=4;spacingRight=4;overflow=hidden;rotatable=0;points=[[0,0.5],[1,0.5]];portConstraint=eastwest;fontStyle=0;fillColor=default;" parent="w3nSRxxRUuNRqhBMiIj4-15" vertex="1">
          <mxGeometry y="71" width="245.66" height="24" as="geometry" />
        </mxCell>
        <mxCell id="fM1EUI45lHuSEFD844UD-10" value="# SendGetRequest(...): JObject" style="text;align=left;verticalAlign=top;spacingLeft=4;spacingRight=4;overflow=hidden;rotatable=0;points=[[0,0.5],[1,0.5]];portConstraint=eastwest;fontStyle=0;fillColor=default;" parent="w3nSRxxRUuNRqhBMiIj4-15" vertex="1">
          <mxGeometry y="95" width="245.66" height="24" as="geometry" />
        </mxCell>
        <mxCell id="w3nSRxxRUuNRqhBMiIj4-23" value="" style="endArrow=block;html=1;rounded=0;endFill=0;endSize=10;elbow=horizontal;" parent="WIyWlLk6GJQsqaUBKTNV-1" source="w3nSRxxRUuNRqhBMiIj4-20" target="w3nSRxxRUuNRqhBMiIj4-15" edge="1">
          <mxGeometry width="50" height="50" relative="1" as="geometry">
            <mxPoint x="-552.5299999999999" y="-402.37" as="sourcePoint" />
            <mxPoint x="-129.52999999999986" y="-462.37" as="targetPoint" />
          </mxGeometry>
        </mxCell>
        <mxCell id="w3nSRxxRUuNRqhBMiIj4-50" value="* TimeSeriesData" style="swimlane;fontStyle=0;align=center;verticalAlign=top;childLayout=stackLayout;horizontal=1;startSize=24;horizontalStack=0;resizeParent=1;resizeLast=0;collapsible=1;marginBottom=0;rounded=0;shadow=0;strokeWidth=1;" parent="WIyWlLk6GJQsqaUBKTNV-1" vertex="1">
          <mxGeometry x="-1332.17" y="-301.62" width="182.87" height="60" as="geometry">
            <mxRectangle x="130" y="380" width="160" height="26" as="alternateBounds" />
          </mxGeometry>
        </mxCell>
        <mxCell id="w3nSRxxRUuNRqhBMiIj4-51" value="" style="line;html=1;strokeWidth=1;align=left;verticalAlign=middle;spacingTop=-1;spacingLeft=3;spacingRight=3;rotatable=0;labelPosition=right;points=[];portConstraint=eastwest;" parent="w3nSRxxRUuNRqhBMiIj4-50" vertex="1">
          <mxGeometry y="24" width="182.87" height="8" as="geometry" />
        </mxCell>
        <mxCell id="fM1EUI45lHuSEFD844UD-14" value="&amp;nbsp;*&amp;nbsp;ReadAllData&amp;lt;T&amp;gt;(...): List&amp;lt;T&amp;gt;" style="text;whiteSpace=wrap;html=1;fillColor=default;" parent="w3nSRxxRUuNRqhBMiIj4-50" vertex="1">
          <mxGeometry y="32" width="182.87" height="24" as="geometry" />
        </mxCell>
        <mxCell id="w3nSRxxRUuNRqhBMiIj4-74" value="&lt;&lt;interface&gt;&gt;&#xa;* ITelematicDataIntegration" style="swimlane;fontStyle=0;align=center;verticalAlign=top;childLayout=stackLayout;horizontal=1;startSize=40;horizontalStack=0;resizeParent=1;resizeLast=0;collapsible=1;marginBottom=0;rounded=0;shadow=0;strokeWidth=1;fillStyle=solid;fillColor=#FFFFFF;" parent="WIyWlLk6GJQsqaUBKTNV-1" vertex="1">
          <mxGeometry x="-1421.99" y="-651.62" width="230" height="80" as="geometry">
            <mxRectangle x="130" y="380" width="160" height="26" as="alternateBounds" />
          </mxGeometry>
        </mxCell>
        <mxCell id="w3nSRxxRUuNRqhBMiIj4-75" value="" style="line;html=1;strokeWidth=1;align=left;verticalAlign=middle;spacingTop=-1;spacingLeft=3;spacingRight=3;rotatable=0;labelPosition=right;points=[];portConstraint=eastwest;fillColor=default;" parent="w3nSRxxRUuNRqhBMiIj4-74" vertex="1">
          <mxGeometry y="40" width="230" height="10" as="geometry" />
        </mxCell>
        <mxCell id="lkbI6lujMXG_aIigIrUI-3" value="&amp;nbsp;* ReadAllData&amp;lt;T&amp;gt;(...): List&amp;lt;T&amp;gt; {abstract}" style="text;whiteSpace=wrap;html=1;fillColor=default;" parent="w3nSRxxRUuNRqhBMiIj4-74" vertex="1">
          <mxGeometry y="50" width="230" height="24" as="geometry" />
        </mxCell>
        <mxCell id="0nikx_p26S03Rqr2ldTH-93" value="" style="endArrow=block;html=1;rounded=0;endFill=0;endSize=10;exitX=0.75;exitY=0;exitDx=0;exitDy=0;entryX=0.75;entryY=1;entryDx=0;entryDy=0;" parent="WIyWlLk6GJQsqaUBKTNV-1" source="w3nSRxxRUuNRqhBMiIj4-50" target="w3nSRxxRUuNRqhBMiIj4-15" edge="1">
          <mxGeometry width="50" height="50" relative="1" as="geometry">
            <mxPoint x="-299.52999999999986" y="-324.37" as="sourcePoint" />
            <mxPoint x="-1221.98" y="-385.62" as="targetPoint" />
            <Array as="points" />
          </mxGeometry>
        </mxCell>
        <mxCell id="w3nSRxxRUuNRqhBMiIj4-20" value="* SnapshotAPICall" style="swimlane;fontStyle=0;align=center;verticalAlign=top;childLayout=stackLayout;horizontal=1;startSize=24;horizontalStack=0;resizeParent=1;resizeLast=0;collapsible=1;marginBottom=0;rounded=0;shadow=0;strokeWidth=1;" parent="WIyWlLk6GJQsqaUBKTNV-1" vertex="1">
          <mxGeometry x="-1461.98" y="-385.62" width="179.5" height="60" as="geometry">
            <mxRectangle x="130" y="380" width="160" height="26" as="alternateBounds" />
          </mxGeometry>
        </mxCell>
        <mxCell id="w3nSRxxRUuNRqhBMiIj4-21" value="" style="line;html=1;strokeWidth=1;align=left;verticalAlign=middle;spacingTop=-1;spacingLeft=3;spacingRight=3;rotatable=0;labelPosition=right;points=[];portConstraint=eastwest;" parent="w3nSRxxRUuNRqhBMiIj4-20" vertex="1">
          <mxGeometry y="24" width="179.5" height="8" as="geometry" />
        </mxCell>
        <mxCell id="fM1EUI45lHuSEFD844UD-13" value="&amp;nbsp;*&amp;nbsp;ReadAllData&amp;lt;T&amp;gt;(...): List&amp;lt;T&amp;gt;" style="text;whiteSpace=wrap;html=1;fillColor=default;" parent="w3nSRxxRUuNRqhBMiIj4-20" vertex="1">
          <mxGeometry y="32" width="179.5" height="24" as="geometry" />
        </mxCell>
        <mxCell id="0nikx_p26S03Rqr2ldTH-94" value="" style="endArrow=block;html=1;rounded=0;endFill=0;endSize=10;dashed=1;elbow=horizontal;" parent="WIyWlLk6GJQsqaUBKTNV-1" source="w3nSRxxRUuNRqhBMiIj4-15" target="w3nSRxxRUuNRqhBMiIj4-74" edge="1">
          <mxGeometry width="50" height="50" relative="1" as="geometry">
            <mxPoint x="-809.0299999999999" y="-430.87" as="sourcePoint" />
            <mxPoint x="-929.0300000000001" y="-600.87" as="targetPoint" />
          </mxGeometry>
        </mxCell>
        <mxCell id="gE1UHPuf3Wz9i4o6AJqW-3" value="TelematicData Integration" style="text;strokeColor=none;fillColor=none;html=1;fontSize=14;fontStyle=1;verticalAlign=middle;align=center;fontColor=#000000;" parent="WIyWlLk6GJQsqaUBKTNV-1" vertex="1">
          <mxGeometry x="-1481.79" y="-697.62" width="359.62" height="30" as="geometry" />
        </mxCell>
        <mxCell id="gE1UHPuf3Wz9i4o6AJqW-70" value="" style="endArrow=open;html=1;rounded=0;endFill=0;endSize=10;exitX=0;exitY=0.5;exitDx=0;exitDy=0;entryX=1;entryY=0.25;entryDx=0;entryDy=0;" parent="WIyWlLk6GJQsqaUBKTNV-1" source="0nikx_p26S03Rqr2ldTH-45" target="w3nSRxxRUuNRqhBMiIj4-74" edge="1">
          <mxGeometry width="50" height="50" relative="1" as="geometry">
            <mxPoint x="-582.2767213114768" y="-147.62" as="sourcePoint" />
            <mxPoint x="-2173.1200000000003" y="-648.62" as="targetPoint" />
          </mxGeometry>
        </mxCell>
        <mxCell id="gE1UHPuf3Wz9i4o6AJqW-59" value="" style="rounded=0;whiteSpace=wrap;html=1;strokeColor=#666666;strokeWidth=2;container=0;fillColor=#f5f5f5;fontColor=#333333;" parent="WIyWlLk6GJQsqaUBKTNV-1" vertex="1">
          <mxGeometry x="-2307" y="-577.25" width="330" height="257.25" as="geometry" />
        </mxCell>
        <mxCell id="0nikx_p26S03Rqr2ldTH-126" value="&lt;&lt;interface&gt;&gt;&#xa;* IEquipmentManagement" style="swimlane;fontStyle=0;align=center;verticalAlign=top;childLayout=stackLayout;horizontal=1;startSize=40;horizontalStack=0;resizeParent=1;resizeLast=0;collapsible=1;marginBottom=0;rounded=0;shadow=0;strokeWidth=1;container=0;" parent="WIyWlLk6GJQsqaUBKTNV-1" vertex="1">
          <mxGeometry x="-2273.25" y="-524.25" width="262.5" height="77" as="geometry">
            <mxRectangle x="130" y="380" width="160" height="26" as="alternateBounds" />
          </mxGeometry>
        </mxCell>
        <mxCell id="0nikx_p26S03Rqr2ldTH-127" value="" style="line;html=1;strokeWidth=1;align=left;verticalAlign=middle;spacingTop=-1;spacingLeft=3;spacingRight=3;rotatable=0;labelPosition=right;points=[];portConstraint=eastwest;container=0;" parent="0nikx_p26S03Rqr2ldTH-126" vertex="1">
          <mxGeometry y="40" width="262.5" height="8" as="geometry" />
        </mxCell>
        <mxCell id="0nikx_p26S03Rqr2ldTH-128" value="* ManageEquipmentData(...): void {abstract}" style="text;align=left;verticalAlign=top;spacingLeft=4;spacingRight=4;overflow=hidden;rotatable=0;points=[[0,0.5],[1,0.5]];portConstraint=eastwest;fontStyle=0;container=0;fillColor=default;" parent="0nikx_p26S03Rqr2ldTH-126" vertex="1">
          <mxGeometry y="48" width="262.5" height="25" as="geometry" />
        </mxCell>
        <mxCell id="0nikx_p26S03Rqr2ldTH-134" value="* Standard" style="swimlane;fontStyle=0;align=center;verticalAlign=top;childLayout=stackLayout;horizontal=1;startSize=24;horizontalStack=0;resizeParent=1;resizeLast=0;collapsible=1;marginBottom=0;rounded=0;shadow=0;strokeWidth=1;container=0;" parent="WIyWlLk6GJQsqaUBKTNV-1" vertex="1">
          <mxGeometry x="-2267.81" y="-410.25" width="251.62" height="60.25" as="geometry">
            <mxRectangle x="130" y="380" width="160" height="26" as="alternateBounds" />
          </mxGeometry>
        </mxCell>
        <mxCell id="0nikx_p26S03Rqr2ldTH-135" value="" style="line;html=1;strokeWidth=1;align=left;verticalAlign=middle;spacingTop=-1;spacingLeft=3;spacingRight=3;rotatable=0;labelPosition=right;points=[];portConstraint=eastwest;container=0;" parent="0nikx_p26S03Rqr2ldTH-134" vertex="1">
          <mxGeometry y="24" width="251.62" height="8" as="geometry" />
        </mxCell>
        <mxCell id="0nikx_p26S03Rqr2ldTH-136" value="&amp;nbsp;*&amp;nbsp;ManageEquipmentData(...): void" style="text;whiteSpace=wrap;html=1;container=0;fillColor=default;" parent="0nikx_p26S03Rqr2ldTH-134" vertex="1">
          <mxGeometry y="32" width="251.62" height="25" as="geometry" />
        </mxCell>
        <mxCell id="0nikx_p26S03Rqr2ldTH-137" value="" style="endArrow=block;html=1;rounded=0;endFill=0;endSize=10;dashed=1;elbow=vertical;" parent="WIyWlLk6GJQsqaUBKTNV-1" source="0nikx_p26S03Rqr2ldTH-134" target="0nikx_p26S03Rqr2ldTH-126" edge="1">
          <mxGeometry width="50" height="50" relative="1" as="geometry">
            <mxPoint x="-2156.12" y="-210.25" as="sourcePoint" />
            <mxPoint x="-2216.12" y="-451.25" as="targetPoint" />
          </mxGeometry>
        </mxCell>
        <mxCell id="gE1UHPuf3Wz9i4o6AJqW-60" value="Equipment Management" style="text;strokeColor=none;fillColor=none;html=1;fontSize=14;fontStyle=1;verticalAlign=middle;align=center;fontColor=#000000;container=0;" parent="WIyWlLk6GJQsqaUBKTNV-1" vertex="1">
          <mxGeometry x="-2307" y="-576" width="323.94" height="30" as="geometry" />
        </mxCell>
        <mxCell id="gE1UHPuf3Wz9i4o6AJqW-57" value="" style="rounded=0;whiteSpace=wrap;html=1;strokeColor=#666666;strokeWidth=2;fillColor=#f5f5f5;fontColor=#333333;" parent="WIyWlLk6GJQsqaUBKTNV-1" vertex="1">
          <mxGeometry x="-2337" y="-212.75" width="360" height="262.75" as="geometry" />
        </mxCell>
        <mxCell id="0nikx_p26S03Rqr2ldTH-98" value="&lt;&lt;interface&gt;&gt;&#xa;* IHelperTablesManagement" style="swimlane;fontStyle=0;align=center;verticalAlign=top;childLayout=stackLayout;horizontal=1;startSize=40;horizontalStack=0;resizeParent=1;resizeLast=0;collapsible=1;marginBottom=0;rounded=0;shadow=0;strokeWidth=1;" parent="WIyWlLk6GJQsqaUBKTNV-1" vertex="1">
          <mxGeometry x="-2280.94" y="-153" width="247.88" height="80" as="geometry">
            <mxRectangle x="130" y="380" width="160" height="26" as="alternateBounds" />
          </mxGeometry>
        </mxCell>
        <mxCell id="0nikx_p26S03Rqr2ldTH-99" value="" style="line;html=1;strokeWidth=1;align=left;verticalAlign=middle;spacingTop=-1;spacingLeft=3;spacingRight=3;rotatable=0;labelPosition=right;points=[];portConstraint=eastwest;" parent="0nikx_p26S03Rqr2ldTH-98" vertex="1">
          <mxGeometry y="40" width="247.88" height="8" as="geometry" />
        </mxCell>
        <mxCell id="gE1UHPuf3Wz9i4o6AJqW-97" value="* ManageHelperTables(...): void {abstract}" style="text;align=left;verticalAlign=top;spacingLeft=4;spacingRight=4;overflow=hidden;rotatable=0;points=[[0,0.5],[1,0.5]];portConstraint=eastwest;fontStyle=0;fillColor=default;" parent="0nikx_p26S03Rqr2ldTH-98" vertex="1">
          <mxGeometry y="48" width="247.88" height="25" as="geometry" />
        </mxCell>
        <mxCell id="0nikx_p26S03Rqr2ldTH-116" value="* UpdateAll" style="swimlane;fontStyle=0;align=center;verticalAlign=top;childLayout=stackLayout;horizontal=1;startSize=24;horizontalStack=0;resizeParent=1;resizeLast=0;collapsible=1;marginBottom=0;rounded=0;shadow=0;strokeWidth=1;" parent="WIyWlLk6GJQsqaUBKTNV-1" vertex="1">
          <mxGeometry x="-2272.5" y="-37.25" width="231" height="60" as="geometry">
            <mxRectangle x="130" y="380" width="160" height="26" as="alternateBounds" />
          </mxGeometry>
        </mxCell>
        <mxCell id="0nikx_p26S03Rqr2ldTH-117" value="" style="line;html=1;strokeWidth=1;align=left;verticalAlign=middle;spacingTop=-1;spacingLeft=3;spacingRight=3;rotatable=0;labelPosition=right;points=[];portConstraint=eastwest;" parent="0nikx_p26S03Rqr2ldTH-116" vertex="1">
          <mxGeometry y="24" width="231" height="8" as="geometry" />
        </mxCell>
        <mxCell id="0nikx_p26S03Rqr2ldTH-118" value="&amp;nbsp;*&amp;nbsp;ManageHelperTables(...): void" style="text;whiteSpace=wrap;html=1;fillColor=default;" parent="0nikx_p26S03Rqr2ldTH-116" vertex="1">
          <mxGeometry y="32" width="231" height="25" as="geometry" />
        </mxCell>
        <mxCell id="0nikx_p26S03Rqr2ldTH-120" value="" style="endArrow=block;html=1;rounded=0;endFill=0;endSize=10;dashed=1;elbow=vertical;" parent="WIyWlLk6GJQsqaUBKTNV-1" source="0nikx_p26S03Rqr2ldTH-116" target="0nikx_p26S03Rqr2ldTH-98" edge="1">
          <mxGeometry width="50" height="50" relative="1" as="geometry">
            <mxPoint x="-2157" y="-39.5" as="sourcePoint" />
            <mxPoint x="-2258" y="-74.75" as="targetPoint" />
          </mxGeometry>
        </mxCell>
        <mxCell id="Vc8K5EFyPNVEoPAMN7gl-63" value="* Others ..." style="swimlane;fontStyle=0;align=center;verticalAlign=top;childLayout=stackLayout;horizontal=1;startSize=24;horizontalStack=0;resizeParent=1;resizeLast=0;collapsible=1;marginBottom=0;rounded=0;shadow=0;strokeWidth=1;" parent="WIyWlLk6GJQsqaUBKTNV-1" vertex="1">
          <mxGeometry x="-210" y="-270" width="187.37" height="57" as="geometry">
            <mxRectangle x="130" y="380" width="160" height="26" as="alternateBounds" />
          </mxGeometry>
        </mxCell>
        <mxCell id="Vc8K5EFyPNVEoPAMN7gl-64" value="" style="line;html=1;strokeWidth=1;align=left;verticalAlign=middle;spacingTop=-1;spacingLeft=3;spacingRight=3;rotatable=0;labelPosition=right;points=[];portConstraint=eastwest;" parent="Vc8K5EFyPNVEoPAMN7gl-63" vertex="1">
          <mxGeometry y="24" width="187.37" height="8" as="geometry" />
        </mxCell>
        <mxCell id="Vc8K5EFyPNVEoPAMN7gl-94" value="&amp;nbsp;*&amp;nbsp;ManageTelematicData&amp;lt;T&amp;gt;(...)" style="text;whiteSpace=wrap;html=1;fillColor=default;" parent="Vc8K5EFyPNVEoPAMN7gl-63" vertex="1">
          <mxGeometry y="32" width="187.37" height="25" as="geometry" />
        </mxCell>
        <mxCell id="Vc8K5EFyPNVEoPAMN7gl-67" value="" style="endArrow=block;html=1;rounded=0;endFill=0;endSize=10;elbow=vertical;entryX=0.75;entryY=1;entryDx=0;entryDy=0;" parent="WIyWlLk6GJQsqaUBKTNV-1" source="Vc8K5EFyPNVEoPAMN7gl-63" target="0nikx_p26S03Rqr2ldTH-160" edge="1">
          <mxGeometry width="50" height="50" relative="1" as="geometry">
            <mxPoint x="-416.16999999999985" y="-114.37" as="sourcePoint" />
            <mxPoint x="-130" y="-280" as="targetPoint" />
          </mxGeometry>
        </mxCell>
        <mxCell id="0nikx_p26S03Rqr2ldTH-151" value="&lt;&lt;interface&gt;&gt;&#xa;* ITelematicDataManagement" style="swimlane;fontStyle=0;align=center;verticalAlign=top;childLayout=stackLayout;horizontal=1;startSize=40;horizontalStack=0;resizeParent=1;resizeLast=0;collapsible=1;marginBottom=0;rounded=0;shadow=0;strokeWidth=1;" parent="WIyWlLk6GJQsqaUBKTNV-1" vertex="1">
          <mxGeometry x="-323.59000000000003" y="-520.37" width="227.09" height="73" as="geometry">
            <mxRectangle x="130" y="380" width="160" height="26" as="alternateBounds" />
          </mxGeometry>
        </mxCell>
        <mxCell id="0nikx_p26S03Rqr2ldTH-152" value="" style="line;html=1;strokeWidth=1;align=left;verticalAlign=middle;spacingTop=-1;spacingLeft=3;spacingRight=3;rotatable=0;labelPosition=right;points=[];portConstraint=eastwest;" parent="0nikx_p26S03Rqr2ldTH-151" vertex="1">
          <mxGeometry y="40" width="227.09" height="8" as="geometry" />
        </mxCell>
        <mxCell id="0nikx_p26S03Rqr2ldTH-153" value="* ManageTelematicData&lt;T&gt;(...): void" style="text;align=left;verticalAlign=top;spacingLeft=4;spacingRight=4;overflow=hidden;rotatable=0;points=[[0,0.5],[1,0.5]];portConstraint=eastwest;fontStyle=0;fillColor=default;" parent="0nikx_p26S03Rqr2ldTH-151" vertex="1">
          <mxGeometry y="48" width="227.09" height="25" as="geometry" />
        </mxCell>
        <mxCell id="0nikx_p26S03Rqr2ldTH-154" value="* CumulativeData" style="swimlane;fontStyle=0;align=center;verticalAlign=top;childLayout=stackLayout;horizontal=1;startSize=24;horizontalStack=0;resizeParent=1;resizeLast=0;collapsible=1;marginBottom=0;rounded=0;shadow=0;strokeWidth=1;" parent="WIyWlLk6GJQsqaUBKTNV-1" vertex="1">
          <mxGeometry x="-479.99999999999994" y="-270" width="220" height="57.25" as="geometry">
            <mxRectangle x="130" y="380" width="160" height="26" as="alternateBounds" />
          </mxGeometry>
        </mxCell>
        <mxCell id="0nikx_p26S03Rqr2ldTH-155" value="" style="line;html=1;strokeWidth=1;align=left;verticalAlign=middle;spacingTop=-1;spacingLeft=3;spacingRight=3;rotatable=0;labelPosition=right;points=[];portConstraint=eastwest;" parent="0nikx_p26S03Rqr2ldTH-154" vertex="1">
          <mxGeometry y="24" width="220" height="8" as="geometry" />
        </mxCell>
        <mxCell id="Vc8K5EFyPNVEoPAMN7gl-69" value="&amp;nbsp;*&amp;nbsp;ManageTelematicData&amp;lt;T&amp;gt;(...): void" style="text;whiteSpace=wrap;html=1;fillColor=default;" parent="0nikx_p26S03Rqr2ldTH-154" vertex="1">
          <mxGeometry y="32" width="220" height="25" as="geometry" />
        </mxCell>
        <mxCell id="0nikx_p26S03Rqr2ldTH-159" value="" style="endArrow=block;html=1;rounded=0;endFill=0;endSize=10;dashed=1;elbow=horizontal;" parent="WIyWlLk6GJQsqaUBKTNV-1" source="0nikx_p26S03Rqr2ldTH-160" target="0nikx_p26S03Rqr2ldTH-151" edge="1">
          <mxGeometry width="50" height="50" relative="1" as="geometry">
            <mxPoint x="130.83000000000018" y="-361.37" as="sourcePoint" />
            <mxPoint x="-459.16999999999985" y="-401.37" as="targetPoint" />
          </mxGeometry>
        </mxCell>
        <mxCell id="0nikx_p26S03Rqr2ldTH-160" value="* TelematicDataManagement&#xa;{abstract}" style="swimlane;fontStyle=0;align=center;verticalAlign=top;childLayout=stackLayout;horizontal=1;startSize=40;horizontalStack=0;resizeParent=1;resizeLast=0;collapsible=1;marginBottom=0;rounded=0;shadow=0;strokeWidth=1;" parent="WIyWlLk6GJQsqaUBKTNV-1" vertex="1">
          <mxGeometry x="-350.05" y="-407.12" width="280" height="98" as="geometry">
            <mxRectangle x="130" y="380" width="160" height="26" as="alternateBounds" />
          </mxGeometry>
        </mxCell>
        <mxCell id="0nikx_p26S03Rqr2ldTH-179" value="&amp;nbsp;- DatabaseLastValue:&lt;font style=&quot;font-size: 12px;&quot;&gt; &lt;font style=&quot;font-size: 12px;&quot;&gt;IRepositoryAccess&lt;/font&gt;&lt;/font&gt;" style="text;whiteSpace=wrap;html=1;fillColor=default;" parent="0nikx_p26S03Rqr2ldTH-160" vertex="1">
          <mxGeometry y="40" width="280" height="25" as="geometry" />
        </mxCell>
        <mxCell id="0nikx_p26S03Rqr2ldTH-161" value="" style="line;html=1;strokeWidth=1;align=left;verticalAlign=middle;spacingTop=-1;spacingLeft=3;spacingRight=3;rotatable=0;labelPosition=right;points=[];portConstraint=eastwest;" parent="0nikx_p26S03Rqr2ldTH-160" vertex="1">
          <mxGeometry y="65" width="280" height="8" as="geometry" />
        </mxCell>
        <mxCell id="Vc8K5EFyPNVEoPAMN7gl-49" value="&amp;nbsp;*&amp;nbsp;ManageTelematicData&amp;lt;T&amp;gt;(...): void {abstract}" style="text;whiteSpace=wrap;html=1;fillColor=default;" parent="0nikx_p26S03Rqr2ldTH-160" vertex="1">
          <mxGeometry y="73" width="280" height="25" as="geometry" />
        </mxCell>
        <mxCell id="0nikx_p26S03Rqr2ldTH-164" value="" style="endArrow=block;html=1;rounded=0;endFill=0;endSize=10;elbow=horizontal;entryX=0.25;entryY=1;entryDx=0;entryDy=0;" parent="WIyWlLk6GJQsqaUBKTNV-1" source="0nikx_p26S03Rqr2ldTH-154" edge="1" target="0nikx_p26S03Rqr2ldTH-160">
          <mxGeometry width="50" height="50" relative="1" as="geometry">
            <mxPoint x="120.83000000000018" y="-264.37" as="sourcePoint" />
            <mxPoint x="-310" y="-280" as="targetPoint" />
          </mxGeometry>
        </mxCell>
        <mxCell id="gE1UHPuf3Wz9i4o6AJqW-62" value="TelematicData Management" style="text;strokeColor=none;fillColor=none;html=1;fontSize=14;fontStyle=1;verticalAlign=middle;align=center;fontColor=#000000;" parent="WIyWlLk6GJQsqaUBKTNV-1" vertex="1">
          <mxGeometry x="-460.04999999999995" y="-577.12" width="460" height="30" as="geometry" />
        </mxCell>
        <mxCell id="gE1UHPuf3Wz9i4o6AJqW-58" value="HelperTables Management" style="text;strokeColor=none;fillColor=none;html=1;fontSize=14;fontStyle=1;verticalAlign=middle;align=center;fontColor=#000000;" parent="WIyWlLk6GJQsqaUBKTNV-1" vertex="1">
          <mxGeometry x="-2337" y="-212.75" width="360" height="30" as="geometry" />
        </mxCell>
        <mxCell id="gE1UHPuf3Wz9i4o6AJqW-6" value="" style="rounded=0;whiteSpace=wrap;html=1;strokeColor=#666666;strokeWidth=2;container=0;fillColor=#f5f5f5;fontColor=#333333;" parent="WIyWlLk6GJQsqaUBKTNV-1" vertex="1">
          <mxGeometry x="-1907" y="-577.25" width="340" height="570" as="geometry" />
        </mxCell>
        <mxCell id="KWVdn1rVs7a4aYOdWXjh-56" value="* Snapshot" style="swimlane;fontStyle=0;align=center;verticalAlign=top;childLayout=stackLayout;horizontal=1;startSize=30;horizontalStack=0;resizeParent=1;resizeLast=0;collapsible=1;marginBottom=0;rounded=0;shadow=0;strokeWidth=1;container=0;" parent="WIyWlLk6GJQsqaUBKTNV-1" vertex="1">
          <mxGeometry x="-1864.62" y="-517.25" width="267.62" height="341" as="geometry">
            <mxRectangle x="130" y="380" width="160" height="26" as="alternateBounds" />
          </mxGeometry>
        </mxCell>
        <mxCell id="w3nSRxxRUuNRqhBMiIj4-3" value="- AccessToken: string" style="text;align=left;verticalAlign=top;spacingLeft=4;spacingRight=4;overflow=hidden;rotatable=0;points=[[0,0.5],[1,0.5]];portConstraint=eastwest;fontStyle=0;container=0;fillColor=default;" parent="KWVdn1rVs7a4aYOdWXjh-56" vertex="1">
          <mxGeometry y="30" width="267.62" height="25" as="geometry" />
        </mxCell>
        <mxCell id="w3nSRxxRUuNRqhBMiIj4-12" value="- APIConnectionURL: string" style="text;align=left;verticalAlign=top;spacingLeft=4;spacingRight=4;overflow=hidden;rotatable=0;points=[[0,0.5],[1,0.5]];portConstraint=eastwest;fontStyle=0;container=0;fillColor=default;" parent="KWVdn1rVs7a4aYOdWXjh-56" vertex="1">
          <mxGeometry y="55" width="267.62" height="25" as="geometry" />
        </mxCell>
        <mxCell id="w3nSRxxRUuNRqhBMiIj4-38" value="- SQLConnectionString: string" style="text;align=left;verticalAlign=top;spacingLeft=4;spacingRight=4;overflow=hidden;rotatable=0;points=[[0,0.5],[1,0.5]];portConstraint=eastwest;fontStyle=0;container=0;fillColor=default;" parent="KWVdn1rVs7a4aYOdWXjh-56" vertex="1">
          <mxGeometry y="80" width="267.62" height="25" as="geometry" />
        </mxCell>
        <mxCell id="w3nSRxxRUuNRqhBMiIj4-93" value="- TriggerDateTime: string" style="text;align=left;verticalAlign=top;spacingLeft=4;spacingRight=4;overflow=hidden;rotatable=0;points=[[0,0.5],[1,0.5]];portConstraint=eastwest;fontStyle=0;container=0;fillColor=default;" parent="KWVdn1rVs7a4aYOdWXjh-56" vertex="1">
          <mxGeometry y="105" width="267.62" height="25" as="geometry" />
        </mxCell>
        <mxCell id="0nikx_p26S03Rqr2ldTH-0" value="- APICallBehavior: ITelematicDataIntegration" style="text;align=left;verticalAlign=top;spacingLeft=4;spacingRight=4;overflow=hidden;rotatable=0;points=[[0,0.5],[1,0.5]];portConstraint=eastwest;fontStyle=0;container=0;fillColor=default;" parent="KWVdn1rVs7a4aYOdWXjh-56" vertex="1">
          <mxGeometry y="130" width="267.62" height="25" as="geometry" />
        </mxCell>
        <mxCell id="0nikx_p26S03Rqr2ldTH-91" value="- EMBehavior: IEquipmentManagement" style="text;align=left;verticalAlign=top;spacingLeft=4;spacingRight=4;overflow=hidden;rotatable=0;points=[[0,0.5],[1,0.5]];portConstraint=eastwest;fontStyle=0;container=0;fillColor=default;" parent="KWVdn1rVs7a4aYOdWXjh-56" vertex="1">
          <mxGeometry y="155" width="267.62" height="25" as="geometry" />
        </mxCell>
        <mxCell id="fM1EUI45lHuSEFD844UD-17" value="- HTMBehavior: IHelperTablesManagement" style="text;align=left;verticalAlign=top;spacingLeft=4;spacingRight=4;overflow=hidden;rotatable=0;points=[[0,0.5],[1,0.5]];portConstraint=eastwest;fontStyle=0;container=0;fillColor=default;" parent="KWVdn1rVs7a4aYOdWXjh-56" vertex="1">
          <mxGeometry y="180" width="267.62" height="24" as="geometry" />
        </mxCell>
        <mxCell id="w3nSRxxRUuNRqhBMiIj4-57" value="- NameOfDataToken: string" style="text;align=left;verticalAlign=top;spacingLeft=4;spacingRight=4;overflow=hidden;rotatable=0;points=[[0,0.5],[1,0.5]];portConstraint=eastwest;fontStyle=0;container=0;fillColor=default;" parent="KWVdn1rVs7a4aYOdWXjh-56" vertex="1">
          <mxGeometry y="204" width="267.62" height="25" as="geometry" />
        </mxCell>
        <mxCell id="KWVdn1rVs7a4aYOdWXjh-57" value="" style="line;html=1;strokeWidth=1;align=left;verticalAlign=middle;spacingTop=-1;spacingLeft=3;spacingRight=3;rotatable=0;labelPosition=right;points=[];portConstraint=eastwest;container=0;" parent="KWVdn1rVs7a4aYOdWXjh-56" vertex="1">
          <mxGeometry y="229" width="267.62" height="8" as="geometry" />
        </mxCell>
        <mxCell id="w3nSRxxRUuNRqhBMiIj4-81" value="&amp;nbsp;# ReadFunctionParameters(...): void" style="text;whiteSpace=wrap;html=1;container=0;fillColor=default;" parent="KWVdn1rVs7a4aYOdWXjh-56" vertex="1">
          <mxGeometry y="237" width="267.62" height="25" as="geometry" />
        </mxCell>
        <mxCell id="fM1EUI45lHuSEFD844UD-19" value="&amp;nbsp;# PerformAPICall&amp;lt;T&amp;gt;(...): List&amp;lt;T&amp;gt;" style="text;whiteSpace=wrap;html=1;container=0;fillColor=default;" parent="KWVdn1rVs7a4aYOdWXjh-56" vertex="1">
          <mxGeometry y="262" width="267.62" height="24" as="geometry" />
        </mxCell>
        <mxCell id="fM1EUI45lHuSEFD844UD-21" value="&amp;nbsp;# PerformHTMBehavior&amp;lt;T&amp;gt;(...): void" style="text;whiteSpace=wrap;html=1;container=0;fillColor=default;" parent="KWVdn1rVs7a4aYOdWXjh-56" vertex="1">
          <mxGeometry y="286" width="267.62" height="24" as="geometry" />
        </mxCell>
        <mxCell id="fM1EUI45lHuSEFD844UD-20" value="&amp;nbsp;# PerformEMBehavior&amp;lt;T&amp;gt;(...): void" style="text;whiteSpace=wrap;html=1;container=0;fillColor=default;" parent="KWVdn1rVs7a4aYOdWXjh-56" vertex="1">
          <mxGeometry y="310" width="267.62" height="24" as="geometry" />
        </mxCell>
        <mxCell id="w3nSRxxRUuNRqhBMiIj4-82" value="+ EquipmentIdentification" style="swimlane;fontStyle=0;align=center;verticalAlign=top;childLayout=stackLayout;horizontal=1;startSize=24;horizontalStack=0;resizeParent=1;resizeLast=0;collapsible=1;marginBottom=0;rounded=0;shadow=0;strokeWidth=1;container=0;" parent="WIyWlLk6GJQsqaUBKTNV-1" vertex="1">
          <mxGeometry x="-1843.1799999999998" y="-144.25" width="224.75" height="100" as="geometry">
            <mxRectangle x="130" y="380" width="160" height="26" as="alternateBounds" />
          </mxGeometry>
        </mxCell>
        <mxCell id="fM1EUI45lHuSEFD844UD-22" value="- ListEquipment: List&lt;Equipment&gt;" style="text;align=left;verticalAlign=top;spacingLeft=4;spacingRight=4;overflow=hidden;rotatable=0;points=[[0,0.5],[1,0.5]];portConstraint=eastwest;fontStyle=0;container=0;fillColor=default;" parent="w3nSRxxRUuNRqhBMiIj4-82" vertex="1">
          <mxGeometry y="24" width="224.75" height="24" as="geometry" />
        </mxCell>
        <mxCell id="w3nSRxxRUuNRqhBMiIj4-88" value="" style="line;html=1;strokeWidth=1;align=left;verticalAlign=middle;spacingTop=-1;spacingLeft=3;spacingRight=3;rotatable=0;labelPosition=right;points=[];portConstraint=eastwest;container=0;" parent="w3nSRxxRUuNRqhBMiIj4-82" vertex="1">
          <mxGeometry y="48" width="224.75" height="8" as="geometry" />
        </mxCell>
        <mxCell id="w3nSRxxRUuNRqhBMiIj4-89" value="+ Run(...): JArray&#xa;[&quot;EquipmentIdentification&quot;]" style="text;align=left;verticalAlign=top;spacingLeft=4;spacingRight=4;overflow=hidden;rotatable=0;points=[[0,0.5],[1,0.5]];portConstraint=eastwest;fontStyle=0;fillColor=#dae8fc;strokeColor=#6c8ebf;container=0;" parent="w3nSRxxRUuNRqhBMiIj4-82" vertex="1">
          <mxGeometry y="56" width="224.75" height="44" as="geometry" />
        </mxCell>
        <mxCell id="w3nSRxxRUuNRqhBMiIj4-91" value="" style="endArrow=block;html=1;rounded=0;endFill=0;endSize=10;elbow=vertical;" parent="WIyWlLk6GJQsqaUBKTNV-1" source="w3nSRxxRUuNRqhBMiIj4-82" target="KWVdn1rVs7a4aYOdWXjh-56" edge="1">
          <mxGeometry width="50" height="50" relative="1" as="geometry">
            <mxPoint x="-1373.87" y="-695.75" as="sourcePoint" />
            <mxPoint x="-1453.87" y="-223.75" as="targetPoint" />
          </mxGeometry>
        </mxCell>
        <mxCell id="gE1UHPuf3Wz9i4o6AJqW-5" value="Snapshots Workflow" style="text;strokeColor=none;fillColor=none;html=1;fontSize=14;fontStyle=1;verticalAlign=middle;align=center;fontColor=#000000;container=0;" parent="WIyWlLk6GJQsqaUBKTNV-1" vertex="1">
          <mxGeometry x="-1907" y="-577.25" width="340" height="31" as="geometry" />
        </mxCell>
        <mxCell id="gE1UHPuf3Wz9i4o6AJqW-52" value="" style="rounded=0;whiteSpace=wrap;html=1;strokeColor=#666666;strokeWidth=2;fillColor=#f5f5f5;fontColor=#333333;" parent="WIyWlLk6GJQsqaUBKTNV-1" vertex="1">
          <mxGeometry x="-1849" y="232" width="680" height="558" as="geometry" />
        </mxCell>
        <mxCell id="RKbm14dXcZmeUl718IsN-1" value="&lt;&lt;interface&gt;&gt;&#xa;* IRepositoryAccess" style="swimlane;fontStyle=0;align=center;verticalAlign=top;childLayout=stackLayout;horizontal=1;startSize=40;horizontalStack=0;resizeParent=1;resizeLast=0;collapsible=1;marginBottom=0;rounded=0;shadow=0;strokeWidth=1;fontSize=12;" parent="WIyWlLk6GJQsqaUBKTNV-1" vertex="1">
          <mxGeometry x="-1607.33" y="280" width="258.76" height="96" as="geometry">
            <mxRectangle x="130" y="380" width="160" height="26" as="alternateBounds" />
          </mxGeometry>
        </mxCell>
        <mxCell id="RKbm14dXcZmeUl718IsN-2" value="" style="line;html=1;strokeWidth=1;align=left;verticalAlign=middle;spacingTop=-1;spacingLeft=3;spacingRight=3;rotatable=0;labelPosition=right;points=[];portConstraint=eastwest;" parent="RKbm14dXcZmeUl718IsN-1" vertex="1">
          <mxGeometry y="40" width="258.76" height="8" as="geometry" />
        </mxCell>
        <mxCell id="lkbI6lujMXG_aIigIrUI-29" value="&amp;nbsp;*&amp;nbsp;UpSertTelematicData(...): void {abstract}" style="text;whiteSpace=wrap;html=1;fillColor=default;" parent="RKbm14dXcZmeUl718IsN-1" vertex="1">
          <mxGeometry y="48" width="258.76" height="24" as="geometry" />
        </mxCell>
        <mxCell id="lkbI6lujMXG_aIigIrUI-30" value="* UpSertDailyReport(...): void {abstract}" style="text;align=left;verticalAlign=top;spacingLeft=4;spacingRight=4;overflow=hidden;rotatable=0;points=[[0,0.5],[1,0.5]];portConstraint=eastwest;fontStyle=0;fillColor=default;" parent="RKbm14dXcZmeUl718IsN-1" vertex="1">
          <mxGeometry y="72" width="258.76" height="24" as="geometry" />
        </mxCell>
        <mxCell id="RKbm14dXcZmeUl718IsN-4" value="* RepositoryAccess&#xa;{abstract}" style="swimlane;fontStyle=0;align=center;verticalAlign=top;childLayout=stackLayout;horizontal=1;startSize=35;horizontalStack=0;resizeParent=1;resizeLast=0;collapsible=1;marginBottom=0;rounded=0;shadow=0;strokeWidth=1;" parent="WIyWlLk6GJQsqaUBKTNV-1" vertex="1">
          <mxGeometry x="-1602.42" y="413.5" width="248.95" height="138" as="geometry">
            <mxRectangle x="130" y="380" width="160" height="26" as="alternateBounds" />
          </mxGeometry>
        </mxCell>
        <mxCell id="RKbm14dXcZmeUl718IsN-7" value="" style="line;html=1;strokeWidth=1;align=left;verticalAlign=middle;spacingTop=-1;spacingLeft=3;spacingRight=3;rotatable=0;labelPosition=right;points=[];portConstraint=eastwest;" parent="RKbm14dXcZmeUl718IsN-4" vertex="1">
          <mxGeometry y="35" width="248.95" height="8" as="geometry" />
        </mxCell>
        <mxCell id="lkbI6lujMXG_aIigIrUI-27" value="* StaticMethods(...)" style="text;align=left;verticalAlign=top;spacingLeft=4;spacingRight=4;overflow=hidden;rotatable=0;points=[[0,0.5],[1,0.5]];portConstraint=eastwest;fontStyle=4;fillColor=default;" parent="RKbm14dXcZmeUl718IsN-4" vertex="1">
          <mxGeometry y="43" width="248.95" height="24" as="geometry" />
        </mxCell>
        <mxCell id="7kN7dCH7s5o741qLLVjG-2" value="&lt;span&gt;&amp;nbsp;* SelectLastValue&amp;lt;T&amp;gt;(...): T&lt;/span&gt;" style="text;whiteSpace=wrap;html=1;fillColor=default;fontStyle=0" vertex="1" parent="RKbm14dXcZmeUl718IsN-4">
          <mxGeometry y="67" width="248.95" height="23" as="geometry" />
        </mxCell>
        <mxCell id="lkbI6lujMXG_aIigIrUI-22" value="&amp;nbsp;*&amp;nbsp;UpSertTelematicData(...): void {abstract}" style="text;whiteSpace=wrap;html=1;fillColor=default;" parent="RKbm14dXcZmeUl718IsN-4" vertex="1">
          <mxGeometry y="90" width="248.95" height="24" as="geometry" />
        </mxCell>
        <mxCell id="lkbI6lujMXG_aIigIrUI-28" value="* UpSertDailyReport(...): void {abstract}" style="text;align=left;verticalAlign=top;spacingLeft=4;spacingRight=4;overflow=hidden;rotatable=0;points=[[0,0.5],[1,0.5]];portConstraint=eastwest;fontStyle=0;fillColor=default;" parent="RKbm14dXcZmeUl718IsN-4" vertex="1">
          <mxGeometry y="114" width="248.95" height="24" as="geometry" />
        </mxCell>
        <mxCell id="RKbm14dXcZmeUl718IsN-12" value="" style="endArrow=block;html=1;rounded=0;endFill=0;endSize=10;dashed=1;elbow=vertical;entryX=0.5;entryY=1;entryDx=0;entryDy=0;exitX=0.5;exitY=0;exitDx=0;exitDy=0;" parent="WIyWlLk6GJQsqaUBKTNV-1" edge="1" target="RKbm14dXcZmeUl718IsN-1" source="RKbm14dXcZmeUl718IsN-4">
          <mxGeometry width="50" height="50" relative="1" as="geometry">
            <mxPoint x="-1473.117093373494" y="438.88" as="sourcePoint" />
            <mxPoint x="-1473.1181626506025" y="403.38" as="targetPoint" />
          </mxGeometry>
        </mxCell>
        <mxCell id="RKbm14dXcZmeUl718IsN-29" value="* Equipment" style="swimlane;fontStyle=0;align=center;verticalAlign=top;childLayout=stackLayout;horizontal=1;startSize=24;horizontalStack=0;resizeParent=1;resizeLast=0;collapsible=1;marginBottom=0;rounded=0;shadow=0;strokeWidth=1;container=0;" parent="WIyWlLk6GJQsqaUBKTNV-1" vertex="1">
          <mxGeometry x="-1806.77" y="590" width="199.44" height="149" as="geometry">
            <mxRectangle x="130" y="380" width="160" height="26" as="alternateBounds" />
          </mxGeometry>
        </mxCell>
        <mxCell id="lkbI6lujMXG_aIigIrUI-31" value="* const TableName: string" style="text;align=left;verticalAlign=top;spacingLeft=4;spacingRight=4;overflow=hidden;rotatable=0;points=[[0,0.5],[1,0.5]];portConstraint=eastwest;fontStyle=0;fillColor=default;" parent="RKbm14dXcZmeUl718IsN-29" vertex="1">
          <mxGeometry y="24" width="199.44" height="23" as="geometry" />
        </mxCell>
        <mxCell id="RKbm14dXcZmeUl718IsN-37" value="- EquipmentID: string" style="text;align=left;verticalAlign=top;spacingLeft=4;spacingRight=4;overflow=hidden;rotatable=0;points=[[0,0.5],[1,0.5]];portConstraint=eastwest;fontStyle=0;fillColor=default;" parent="RKbm14dXcZmeUl718IsN-29" vertex="1">
          <mxGeometry y="47" width="199.44" height="23" as="geometry" />
        </mxCell>
        <mxCell id="RKbm14dXcZmeUl718IsN-38" value="- OtherData" style="text;align=left;verticalAlign=top;spacingLeft=4;spacingRight=4;overflow=hidden;rotatable=0;points=[[0,0.5],[1,0.5]];portConstraint=eastwest;fontStyle=0;fillColor=default;" parent="RKbm14dXcZmeUl718IsN-29" vertex="1">
          <mxGeometry y="70" width="199.44" height="23" as="geometry" />
        </mxCell>
        <mxCell id="RKbm14dXcZmeUl718IsN-30" value="" style="line;html=1;strokeWidth=1;align=left;verticalAlign=middle;spacingTop=-1;spacingLeft=3;spacingRight=3;rotatable=0;labelPosition=right;points=[];portConstraint=eastwest;" parent="RKbm14dXcZmeUl718IsN-29" vertex="1">
          <mxGeometry y="93" width="199.44" height="8" as="geometry" />
        </mxCell>
        <mxCell id="lkbI6lujMXG_aIigIrUI-39" value="&amp;nbsp;*&amp;nbsp;UpSertTelematicData(...): void" style="text;whiteSpace=wrap;html=1;fillColor=default;" parent="RKbm14dXcZmeUl718IsN-29" vertex="1">
          <mxGeometry y="101" width="199.44" height="24" as="geometry" />
        </mxCell>
        <mxCell id="lkbI6lujMXG_aIigIrUI-34" value="* UpSertDailyReport(...): void { }" style="text;align=left;verticalAlign=top;spacingLeft=4;spacingRight=4;overflow=hidden;rotatable=0;points=[[0,0.5],[1,0.5]];portConstraint=eastwest;fontStyle=0;fillColor=default;" parent="RKbm14dXcZmeUl718IsN-29" vertex="1">
          <mxGeometry y="125" width="199.44" height="24" as="geometry" />
        </mxCell>
        <mxCell id="RKbm14dXcZmeUl718IsN-40" value="* FuelUsed" style="swimlane;fontStyle=0;align=center;verticalAlign=top;childLayout=stackLayout;horizontal=1;startSize=24;horizontalStack=0;resizeParent=1;resizeLast=0;collapsible=1;marginBottom=0;rounded=0;shadow=0;strokeWidth=1;" parent="WIyWlLk6GJQsqaUBKTNV-1" vertex="1">
          <mxGeometry x="-1577.95" y="589.75" width="200" height="148" as="geometry">
            <mxRectangle x="130" y="380" width="160" height="26" as="alternateBounds" />
          </mxGeometry>
        </mxCell>
        <mxCell id="cdLhrll1uMz7AYDoc9vj-26" value="* const TableName: string" style="text;align=left;verticalAlign=top;spacingLeft=4;spacingRight=4;overflow=hidden;rotatable=0;points=[[0,0.5],[1,0.5]];portConstraint=eastwest;fontStyle=0;fillColor=default;" parent="RKbm14dXcZmeUl718IsN-40" vertex="1">
          <mxGeometry y="24" width="200" height="23" as="geometry" />
        </mxCell>
        <mxCell id="RKbm14dXcZmeUl718IsN-41" value="- DateAndTime: DateTime" style="text;align=left;verticalAlign=top;spacingLeft=4;spacingRight=4;overflow=hidden;rotatable=0;points=[[0,0.5],[1,0.5]];portConstraint=eastwest;fontStyle=0;fillColor=default;" parent="RKbm14dXcZmeUl718IsN-40" vertex="1">
          <mxGeometry y="47" width="200" height="23" as="geometry" />
        </mxCell>
        <mxCell id="lkbI6lujMXG_aIigIrUI-32" value="- OtherData" style="text;align=left;verticalAlign=top;spacingLeft=4;spacingRight=4;overflow=hidden;rotatable=0;points=[[0,0.5],[1,0.5]];portConstraint=eastwest;fontStyle=0;fillColor=default;" parent="RKbm14dXcZmeUl718IsN-40" vertex="1">
          <mxGeometry y="70" width="200" height="23" as="geometry" />
        </mxCell>
        <mxCell id="RKbm14dXcZmeUl718IsN-46" value="" style="line;html=1;strokeWidth=1;align=left;verticalAlign=middle;spacingTop=-1;spacingLeft=3;spacingRight=3;rotatable=0;labelPosition=right;points=[];portConstraint=eastwest;" parent="RKbm14dXcZmeUl718IsN-40" vertex="1">
          <mxGeometry y="93" width="200" height="8" as="geometry" />
        </mxCell>
        <mxCell id="RKbm14dXcZmeUl718IsN-49" value="&amp;nbsp;* UpSertTelematicData(...): void" style="text;whiteSpace=wrap;html=1;fillColor=default;" parent="RKbm14dXcZmeUl718IsN-40" vertex="1">
          <mxGeometry y="101" width="200" height="23" as="geometry" />
        </mxCell>
        <mxCell id="lkbI6lujMXG_aIigIrUI-33" value="* UpSertDailyReport(...): void" style="text;align=left;verticalAlign=top;spacingLeft=4;spacingRight=4;overflow=hidden;rotatable=0;points=[[0,0.5],[1,0.5]];portConstraint=eastwest;fontStyle=0;fillColor=default;" parent="RKbm14dXcZmeUl718IsN-40" vertex="1">
          <mxGeometry y="124" width="200" height="24" as="geometry" />
        </mxCell>
        <mxCell id="RKbm14dXcZmeUl718IsN-50" value="" style="endArrow=block;html=1;rounded=0;endFill=0;endSize=10;elbow=horizontal;entryX=0.5;entryY=1;entryDx=0;entryDy=0;exitX=0.5;exitY=0;exitDx=0;exitDy=0;" parent="WIyWlLk6GJQsqaUBKTNV-1" edge="1" target="RKbm14dXcZmeUl718IsN-4" source="RKbm14dXcZmeUl718IsN-40">
          <mxGeometry width="50" height="50" relative="1" as="geometry">
            <mxPoint x="-1473.11780955374" y="620.13" as="sourcePoint" />
            <mxPoint x="-1473.1167473287244" y="577.88" as="targetPoint" />
          </mxGeometry>
        </mxCell>
        <mxCell id="RKbm14dXcZmeUl718IsN-51" value="* Other Telematic Data" style="swimlane;fontStyle=0;align=center;verticalAlign=top;childLayout=stackLayout;horizontal=1;startSize=24;horizontalStack=0;resizeParent=1;resizeLast=0;collapsible=1;marginBottom=0;rounded=0;shadow=0;strokeWidth=1;" parent="WIyWlLk6GJQsqaUBKTNV-1" vertex="1">
          <mxGeometry x="-1353.47" y="589.75" width="157.12" height="32" as="geometry">
            <mxRectangle x="130" y="380" width="160" height="26" as="alternateBounds" />
          </mxGeometry>
        </mxCell>
        <mxCell id="RKbm14dXcZmeUl718IsN-57" value="" style="line;html=1;strokeWidth=1;align=left;verticalAlign=middle;spacingTop=-1;spacingLeft=3;spacingRight=3;rotatable=0;labelPosition=right;points=[];portConstraint=eastwest;" parent="RKbm14dXcZmeUl718IsN-51" vertex="1">
          <mxGeometry y="24" width="157.12" height="8" as="geometry" />
        </mxCell>
        <mxCell id="RKbm14dXcZmeUl718IsN-58" value="" style="endArrow=block;html=1;rounded=0;endFill=0;endSize=10;elbow=vertical;entryX=0.75;entryY=1;entryDx=0;entryDy=0;" parent="WIyWlLk6GJQsqaUBKTNV-1" source="RKbm14dXcZmeUl718IsN-51" target="RKbm14dXcZmeUl718IsN-4" edge="1">
          <mxGeometry width="50" height="50" relative="1" as="geometry">
            <mxPoint x="-1173.3600000000001" y="663.88" as="sourcePoint" />
            <mxPoint x="-1400" y="580" as="targetPoint" />
          </mxGeometry>
        </mxCell>
        <mxCell id="gE1UHPuf3Wz9i4o6AJqW-53" value="RepositoryAccess Foundation" style="text;strokeColor=none;fillColor=none;html=1;fontSize=14;fontStyle=1;verticalAlign=middle;align=center;fontColor=#000000;" parent="WIyWlLk6GJQsqaUBKTNV-1" vertex="1">
          <mxGeometry x="-1849" y="230.5" width="680" height="30" as="geometry" />
        </mxCell>
        <mxCell id="gE1UHPuf3Wz9i4o6AJqW-69" value="" style="endArrow=open;html=1;rounded=0;endFill=0;endSize=10;exitX=1;exitY=0.5;exitDx=0;exitDy=0;entryX=0;entryY=0.25;entryDx=0;entryDy=0;" parent="WIyWlLk6GJQsqaUBKTNV-1" source="0nikx_p26S03Rqr2ldTH-0" target="w3nSRxxRUuNRqhBMiIj4-74" edge="1">
          <mxGeometry width="50" height="50" relative="1" as="geometry">
            <mxPoint x="-1837" y="-300" as="sourcePoint" />
            <mxPoint x="-1787" y="-350" as="targetPoint" />
          </mxGeometry>
        </mxCell>
        <mxCell id="gE1UHPuf3Wz9i4o6AJqW-71" value="" style="endArrow=open;html=1;rounded=0;endFill=0;endSize=10;entryX=1;entryY=0.25;entryDx=0;entryDy=0;exitX=0;exitY=0.5;exitDx=0;exitDy=0;" parent="WIyWlLk6GJQsqaUBKTNV-1" source="0nikx_p26S03Rqr2ldTH-91" target="0nikx_p26S03Rqr2ldTH-126" edge="1">
          <mxGeometry width="50" height="50" relative="1" as="geometry">
            <mxPoint x="-1877" y="-287.25" as="sourcePoint" />
            <mxPoint x="-1748" y="-24.75" as="targetPoint" />
          </mxGeometry>
        </mxCell>
        <mxCell id="MV0Z17iaG6zpHOlIodzc-5" value="" style="endArrow=open;html=1;rounded=0;endFill=0;endSize=10;exitX=1;exitY=0.5;exitDx=0;exitDy=0;" parent="WIyWlLk6GJQsqaUBKTNV-1" source="0nikx_p26S03Rqr2ldTH-89" target="Vc8K5EFyPNVEoPAMN7gl-1" edge="1">
          <mxGeometry width="50" height="50" relative="1" as="geometry">
            <mxPoint x="-676.11" y="-111.87" as="sourcePoint" />
            <mxPoint x="-438.10999999999996" y="227.13" as="targetPoint" />
          </mxGeometry>
        </mxCell>
        <mxCell id="gE1UHPuf3Wz9i4o6AJqW-90" value="+ EngineCondition" style="swimlane;fontStyle=0;align=center;verticalAlign=top;childLayout=stackLayout;horizontal=1;startSize=24;horizontalStack=0;resizeParent=1;resizeLast=0;collapsible=1;marginBottom=0;rounded=0;shadow=0;strokeWidth=1;container=0;" parent="WIyWlLk6GJQsqaUBKTNV-1" vertex="1">
          <mxGeometry x="-874.21" y="40" width="274.21" height="100" as="geometry">
            <mxRectangle x="130" y="380" width="160" height="26" as="alternateBounds" />
          </mxGeometry>
        </mxCell>
        <mxCell id="lkbI6lujMXG_aIigIrUI-12" value="- ListTelematicsData: List&lt;IRepositoryAccess&gt;" style="text;align=left;verticalAlign=top;spacingLeft=4;spacingRight=4;overflow=hidden;rotatable=1;points=[[0,0.5],[1,0.5]];portConstraint=eastwest;fontStyle=0;container=0;movable=1;resizable=1;deletable=1;editable=1;locked=0;connectable=1;fillColor=default;fontSize=12;" parent="gE1UHPuf3Wz9i4o6AJqW-90" vertex="1">
          <mxGeometry y="24" width="274.21" height="25" as="geometry" />
        </mxCell>
        <mxCell id="gE1UHPuf3Wz9i4o6AJqW-93" value="" style="line;html=1;strokeWidth=1;align=left;verticalAlign=middle;spacingTop=-1;spacingLeft=3;spacingRight=3;rotatable=0;labelPosition=right;points=[];portConstraint=eastwest;container=0;" parent="gE1UHPuf3Wz9i4o6AJqW-90" vertex="1">
          <mxGeometry y="49" width="274.21" height="8" as="geometry" />
        </mxCell>
        <mxCell id="Vc8K5EFyPNVEoPAMN7gl-105" value="+ Run(...): void&#xa;[&quot;EngineCondition&quot;] " style="text;align=left;verticalAlign=top;spacingLeft=4;spacingRight=4;overflow=hidden;rotatable=0;points=[[0,0.5],[1,0.5]];portConstraint=eastwest;fontStyle=4;fillColor=#dae8fc;strokeColor=#6c8ebf;container=0;" parent="gE1UHPuf3Wz9i4o6AJqW-90" vertex="1">
          <mxGeometry y="57" width="274.21" height="43" as="geometry" />
        </mxCell>
        <mxCell id="fM1EUI45lHuSEFD844UD-0" value="I" style="shape=module;align=left;spacingLeft=20;align=center;verticalAlign=top;whiteSpace=wrap;html=1;container=0;jettyWidth=14;jettyHeight=6;strokeColor=#808080;fontStyle=1;fontSize=16;" parent="WIyWlLk6GJQsqaUBKTNV-1" vertex="1">
          <mxGeometry x="-1171.79" y="-689.62" width="40" height="28" as="geometry" />
        </mxCell>
        <mxCell id="fM1EUI45lHuSEFD844UD-16" value="B" style="shape=module;align=left;spacingLeft=20;align=center;verticalAlign=top;whiteSpace=wrap;html=1;container=0;jettyWidth=14;jettyHeight=6;strokeColor=#808080;fontStyle=1;fontSize=16;" parent="WIyWlLk6GJQsqaUBKTNV-1" vertex="1">
          <mxGeometry x="-1614.62" y="-570.25" width="40" height="28" as="geometry" />
        </mxCell>
        <mxCell id="fM1EUI45lHuSEFD844UD-23" value="" style="strokeWidth=1;html=1;shape=mxgraph.flowchart.annotation_2;align=left;labelPosition=right;pointerEvents=1;rotation=-180;fontColor=#808080;strokeColor=#999999;" parent="WIyWlLk6GJQsqaUBKTNV-1" vertex="1">
          <mxGeometry x="-1691.62" y="-483.25" width="31.02" height="93.5" as="geometry" />
        </mxCell>
        <mxCell id="fM1EUI45lHuSEFD844UD-24" value="Übergabe-&lt;br&gt;parameter" style="text;html=1;strokeColor=none;fillColor=default;align=center;verticalAlign=middle;whiteSpace=wrap;rounded=0;fontSize=12;fontColor=#808080;fontStyle=0" parent="WIyWlLk6GJQsqaUBKTNV-1" vertex="1">
          <mxGeometry x="-1665.62" y="-456.75" width="71" height="39" as="geometry" />
        </mxCell>
        <mxCell id="fM1EUI45lHuSEFD844UD-25" value="Einmaliger Aufruf je Pipelineausführung" style="text;html=1;strokeColor=none;fillColor=none;align=center;verticalAlign=middle;whiteSpace=wrap;rounded=0;fontSize=12;fontColor=#808080;fontStyle=1" parent="WIyWlLk6GJQsqaUBKTNV-1" vertex="1">
          <mxGeometry x="-1859.28" y="-37.25" width="239.81" height="30" as="geometry" />
        </mxCell>
        <mxCell id="fM1EUI45lHuSEFD844UD-26" value="D" style="shape=module;align=left;spacingLeft=20;align=center;verticalAlign=top;whiteSpace=wrap;html=1;container=0;jettyWidth=14;jettyHeight=6;strokeColor=#808080;fontStyle=1;fontSize=16;" parent="WIyWlLk6GJQsqaUBKTNV-1" vertex="1">
          <mxGeometry x="-2025" y="-569.25" width="40" height="28" as="geometry" />
        </mxCell>
        <mxCell id="fM1EUI45lHuSEFD844UD-28" value="D" style="shape=module;align=left;spacingLeft=20;align=center;verticalAlign=top;whiteSpace=wrap;html=1;container=0;jettyWidth=14;jettyHeight=6;strokeColor=#808080;fontStyle=1;fontSize=16;" parent="WIyWlLk6GJQsqaUBKTNV-1" vertex="1">
          <mxGeometry x="-2025" y="-205.25" width="40" height="28" as="geometry" />
        </mxCell>
        <mxCell id="gE1UHPuf3Wz9i4o6AJqW-72" value="" style="endArrow=open;html=1;rounded=0;endFill=0;endSize=10;exitX=0;exitY=0.5;exitDx=0;exitDy=0;entryX=1;entryY=0.25;entryDx=0;entryDy=0;" parent="WIyWlLk6GJQsqaUBKTNV-1" source="fM1EUI45lHuSEFD844UD-17" target="0nikx_p26S03Rqr2ldTH-98" edge="1">
          <mxGeometry width="50" height="50" relative="1" as="geometry">
            <mxPoint x="-1821.75" y="-69.25" as="sourcePoint" />
            <mxPoint x="-2029" y="-210.25" as="targetPoint" />
          </mxGeometry>
        </mxCell>
        <mxCell id="lkbI6lujMXG_aIigIrUI-0" value="B" style="shape=module;align=left;spacingLeft=20;align=center;verticalAlign=top;whiteSpace=wrap;html=1;container=0;jettyWidth=14;jettyHeight=6;strokeColor=#808080;fontStyle=1;fontSize=16;" parent="WIyWlLk6GJQsqaUBKTNV-1" vertex="1">
          <mxGeometry x="-600" y="-568.12" width="40" height="28" as="geometry" />
        </mxCell>
        <mxCell id="lkbI6lujMXG_aIigIrUI-1" value="" style="endArrow=block;html=1;rounded=0;endFill=0;endSize=10;elbow=vertical;" parent="WIyWlLk6GJQsqaUBKTNV-1" source="gE1UHPuf3Wz9i4o6AJqW-90" edge="1">
          <mxGeometry width="50" height="50" relative="1" as="geometry">
            <mxPoint x="-767" y="33.38" as="sourcePoint" />
            <mxPoint x="-753.89" y="-110" as="targetPoint" />
          </mxGeometry>
        </mxCell>
        <mxCell id="0nikx_p26S03Rqr2ldTH-56" value="+ FuelUsed" style="swimlane;fontStyle=0;align=center;verticalAlign=top;childLayout=stackLayout;horizontal=1;startSize=24;horizontalStack=0;resizeParent=1;resizeLast=0;collapsible=1;marginBottom=0;rounded=0;shadow=0;strokeWidth=1;container=0;" parent="WIyWlLk6GJQsqaUBKTNV-1" vertex="1">
          <mxGeometry x="-1055.5" y="-80.37" width="275.5" height="100" as="geometry">
            <mxRectangle x="130" y="380" width="160" height="26" as="alternateBounds" />
          </mxGeometry>
        </mxCell>
        <mxCell id="0nikx_p26S03Rqr2ldTH-57" value="- ListTelematicsData: List&lt;IRepositoryAccess&gt;" style="text;align=left;verticalAlign=top;spacingLeft=4;spacingRight=4;overflow=hidden;rotatable=1;points=[[0,0.5],[1,0.5]];portConstraint=eastwest;fontStyle=0;container=0;movable=1;resizable=1;deletable=1;editable=1;locked=0;connectable=1;fillColor=default;fontSize=12;" parent="0nikx_p26S03Rqr2ldTH-56" vertex="1">
          <mxGeometry y="24" width="275.5" height="25" as="geometry" />
        </mxCell>
        <mxCell id="0nikx_p26S03Rqr2ldTH-58" value="" style="line;html=1;strokeWidth=1;align=left;verticalAlign=middle;spacingTop=-1;spacingLeft=3;spacingRight=3;rotatable=0;labelPosition=right;points=[];portConstraint=eastwest;container=0;" parent="0nikx_p26S03Rqr2ldTH-56" vertex="1">
          <mxGeometry y="49" width="275.5" height="8" as="geometry" />
        </mxCell>
        <mxCell id="0nikx_p26S03Rqr2ldTH-59" value="+ Run(...): void&#xa;[&quot;FuelUsed&quot;]" style="text;align=left;verticalAlign=top;spacingLeft=4;spacingRight=4;overflow=hidden;rotatable=0;points=[[0,0.5],[1,0.5]];portConstraint=eastwest;fontStyle=4;fillColor=#dae8fc;strokeColor=#6c8ebf;container=0;" parent="0nikx_p26S03Rqr2ldTH-56" vertex="1">
          <mxGeometry y="57" width="275.5" height="43" as="geometry" />
        </mxCell>
        <mxCell id="lkbI6lujMXG_aIigIrUI-4" value="" style="strokeWidth=1;html=1;shape=mxgraph.flowchart.annotation_2;align=left;labelPosition=right;pointerEvents=1;rotation=-180;fontColor=#808080;strokeColor=#999999;" parent="WIyWlLk6GJQsqaUBKTNV-1" vertex="1">
          <mxGeometry x="-731" y="-488.87" width="31.02" height="115.5" as="geometry" />
        </mxCell>
        <mxCell id="lkbI6lujMXG_aIigIrUI-5" value="Übergabe-&lt;br&gt;parameter" style="text;html=1;strokeColor=none;fillColor=default;align=center;verticalAlign=middle;whiteSpace=wrap;rounded=0;fontSize=12;fontColor=#808080;fontStyle=0" parent="WIyWlLk6GJQsqaUBKTNV-1" vertex="1">
          <mxGeometry x="-705" y="-452.37" width="71" height="39" as="geometry" />
        </mxCell>
        <mxCell id="lkbI6lujMXG_aIigIrUI-14" value="D" style="shape=module;align=left;spacingLeft=20;align=center;verticalAlign=top;whiteSpace=wrap;html=1;container=0;jettyWidth=14;jettyHeight=6;strokeColor=#808080;fontStyle=1;fontSize=16;" parent="WIyWlLk6GJQsqaUBKTNV-1" vertex="1">
          <mxGeometry x="-50.049999999999955" y="-568.87" width="40" height="28" as="geometry" />
        </mxCell>
        <mxCell id="lkbI6lujMXG_aIigIrUI-16" value="D" style="shape=module;align=left;spacingLeft=20;align=center;verticalAlign=top;whiteSpace=wrap;html=1;container=0;jettyWidth=14;jettyHeight=6;strokeColor=#808080;fontStyle=1;fontSize=16;" parent="WIyWlLk6GJQsqaUBKTNV-1" vertex="1">
          <mxGeometry x="-50.31999999999996" y="220" width="40" height="28" as="geometry" />
        </mxCell>
        <mxCell id="lkbI6lujMXG_aIigIrUI-19" value="&lt;div style=&quot;font-size: 22px;&quot;&gt;&lt;font color=&quot;#000000&quot; style=&quot;font-size: 22px;&quot;&gt;&lt;font face=&quot;Helvetica&quot; style=&quot;font-size: 22px;&quot;&gt;&lt;b style=&quot;font-size: 22px;&quot;&gt;Azure Function-App&lt;/b&gt;&lt;/font&gt;&lt;/font&gt;&lt;/div&gt;&lt;div style=&quot;font-size: 22px;&quot;&gt;&lt;font face=&quot;Helvetica&quot; color=&quot;#000000&quot; style=&quot;font-size: 22px;&quot;&gt;ETL_TelematicData_AzureFunctionApp&lt;/font&gt;&lt;/div&gt;" style="text;html=1;align=left;verticalAlign=middle;whiteSpace=wrap;rounded=0;fontSize=22;" parent="WIyWlLk6GJQsqaUBKTNV-1" vertex="1">
          <mxGeometry x="-2328" y="-820" width="418" height="50" as="geometry" />
        </mxCell>
        <mxCell id="lkbI6lujMXG_aIigIrUI-20" value="F" style="shape=module;align=left;spacingLeft=20;align=center;verticalAlign=top;whiteSpace=wrap;html=1;container=0;jettyWidth=14;jettyHeight=6;strokeColor=#808080;fontStyle=1;fontSize=16;" parent="WIyWlLk6GJQsqaUBKTNV-1" vertex="1">
          <mxGeometry x="-1218.7900000000002" y="243.38" width="40" height="28" as="geometry" />
        </mxCell>
        <mxCell id="WGa1z35rx9LFmZII8yUq-6" value="* BooleanData" style="swimlane;fontStyle=0;align=center;verticalAlign=top;childLayout=stackLayout;horizontal=1;startSize=24;horizontalStack=0;resizeParent=1;resizeLast=0;collapsible=1;marginBottom=0;rounded=0;shadow=0;strokeWidth=1;" parent="WIyWlLk6GJQsqaUBKTNV-1" vertex="1">
          <mxGeometry x="-360.32" y="-177.25" width="226" height="57" as="geometry">
            <mxRectangle x="130" y="380" width="160" height="26" as="alternateBounds" />
          </mxGeometry>
        </mxCell>
        <mxCell id="WGa1z35rx9LFmZII8yUq-7" value="" style="line;html=1;strokeWidth=1;align=left;verticalAlign=middle;spacingTop=-1;spacingLeft=3;spacingRight=3;rotatable=0;labelPosition=right;points=[];portConstraint=eastwest;" parent="WGa1z35rx9LFmZII8yUq-6" vertex="1">
          <mxGeometry y="24" width="226" height="8" as="geometry" />
        </mxCell>
        <mxCell id="WGa1z35rx9LFmZII8yUq-8" value="&amp;nbsp;*&amp;nbsp;ManageTelematicData&amp;lt;T&amp;gt;(...): void" style="text;whiteSpace=wrap;html=1;fillColor=default;" parent="WGa1z35rx9LFmZII8yUq-6" vertex="1">
          <mxGeometry y="32" width="226" height="25" as="geometry" />
        </mxCell>
        <mxCell id="WGa1z35rx9LFmZII8yUq-9" value="" style="endArrow=block;html=1;rounded=0;endFill=0;endSize=10;elbow=vertical;entryX=0.5;entryY=1;entryDx=0;entryDy=0;" parent="WIyWlLk6GJQsqaUBKTNV-1" source="WGa1z35rx9LFmZII8yUq-6" edge="1" target="0nikx_p26S03Rqr2ldTH-160">
          <mxGeometry width="50" height="50" relative="1" as="geometry">
            <mxPoint x="-110" y="-134" as="sourcePoint" />
            <mxPoint x="-220" y="-280" as="targetPoint" />
          </mxGeometry>
        </mxCell>
        <mxCell id="RKbm14dXcZmeUl718IsN-32" value="" style="endArrow=block;html=1;rounded=0;endFill=0;endSize=10;elbow=vertical;exitX=0.75;exitY=0;exitDx=0;exitDy=0;entryX=0.25;entryY=1;entryDx=0;entryDy=0;" parent="WIyWlLk6GJQsqaUBKTNV-1" source="RKbm14dXcZmeUl718IsN-29" target="RKbm14dXcZmeUl718IsN-4" edge="1">
          <mxGeometry width="50" height="50" relative="1" as="geometry">
            <mxPoint x="-1281.6799999999998" y="994.5" as="sourcePoint" />
            <mxPoint x="-1322.6799999999998" y="909.5" as="targetPoint" />
          </mxGeometry>
        </mxCell>
      </root>
    </mxGraphModel>
  </diagram>
</mxfile>
